<?xml version="1.0" encoding="UTF-8"?>
<!DOCTYPE svg  PUBLIC '-//W3C//DTD SVG 1.1//EN'  'http://www.w3.org/Graphics/SVG/1.1/DTD/svg11.dtd'>
<svg version="1.1" xmlns="http://www.w3.org/2000/svg">
<defs>
<font id="AnoRegular-UpperLowerItalic" horiz-adv-x="580">
<font-face font-family="Ano Regular Upper Lower Italic" font-style="italic" font-weight="400" ascent="800" bbox="-230 -280 1567 1070" cap-height="1050" descent="-200" panose-1="0 0 0 0 0 0 0 0 0 0" underline-position="-133" underline-thickness="20" unicode-range="U+0020-00FE" units-per-em="1000" x-height="450"/>
<missing-glyph/>
<glyph glyph-name="space" horiz-adv-x="200" unicode=" "/>
<glyph d="M159 750h80l-112 -530h-80zM26 120h80l-26 -120h-80z" glyph-name="exclam" horiz-adv-x="209" unicode="!"/>
<glyph d="M319 750h80l-49 -230h-80zM159 750h80l-49 -230h-80z" glyph-name="quotedbl" horiz-adv-x="369" unicode='"'/>
<glyph d="M510 510h120l-30 -70h-120l-55 -130h120l-30 -70h-120l-102 -240h-80l102 240h-95l-102 -240h-80l102 240h-120l30 70h120l55 130h-120l30 70h120l102 240h80l-102 -240h95l102 240h80zM345 310l55 130h-95l-55 -130h95z" glyph-name="numbersign" horiz-adv-x="649" unicode="#"/>
<glyph d="M577 571l-74 -27q0 111 -80 145q-10 4 -19 6l-59 -279l46 -13q89 -26 118 -110q11 -32 11 -66q0 -127 -108 -198q-71 -46 -160 -50l-25 -119h-74l26 125q-110 21 -150 106q-19 39 -19 86l77 30v-8q0 -103 84 -137q12 -5 23 -8l65 306l-26 7q-80 23 -111 101 q-14 35 -14 72q0 118 98 185q63 41 140 47l25 118h74l-26 -123q105 -22 142 -110q16 -39 16 -86zM275 436l55 260q-75 -16 -115 -76q-26 -39 -26 -84q0 -67 61 -92l12 -4zM437 228q0 73 -61 97q-6 2 -11 4l-36 10l-61 -288q87 13 136 77q33 45 33 100z" glyph-name="dollar" horiz-adv-x="607" unicode="$"/>
<glyph d="M445 610q0 -90 -73 -153q-63 -54 -141 -54q-80 0 -128 62q-33 44 -33 97q0 90 72 153q63 55 141 55q79 0 128 -62q34 -44 34 -98zM662 770l53 -34l-566 -756l-53 34zM739 187q0 -90 -73 -154q-63 -54 -141 -54q-79 0 -128 63q-33 44 -33 97q0 90 72 153q63 55 141 55 q79 0 128 -62q34 -44 34 -98zM374 611q0 55 -44 81q-22 13 -47 13q-61 0 -107 -55q-35 -42 -35 -88q0 -55 44 -81q22 -13 47 -13q61 0 107 54q35 42 35 89zM668 188q0 55 -44 81q-22 13 -47 13q-61 0 -107 -55q-35 -42 -35 -88q0 -55 44 -81q22 -13 47 -13q61 0 107 54 q35 42 35 89z" glyph-name="percent" horiz-adv-x="808" unicode="%"/>
<glyph d="M321 300h239l-15 -70h-74l-12 -55q-24 -107 -127 -161q-66 -34 -138 -34q-107 0 -162 68q-37 47 -37 113q0 100 95 172q38 28 82 45q-76 39 -86 123q-1 10 -1 20q0 105 84 181q77 69 174 69q90 0 144 -70q38 -50 38 -113v-17l-77 -28q1 9 1 25q0 82 -54 117 q-27 16 -59 16q-74 0 -128 -65q-42 -52 -42 -112q0 -68 53 -99q26 -14 57 -14l-15 -70q-73 0 -133 -61q-51 -54 -52 -116q0 -80 70 -106q24 -8 50 -8q79 0 136 55q38 38 49 88l8 37h-83z" glyph-name="ampersand" horiz-adv-x="565" unicode="&amp;"/>
<glyph d="M159 750h80l-49 -230h-80z" glyph-name="quotesingle" horiz-adv-x="208" unicode="'"/>
<glyph d="M422 810l5 -69q-128 -18 -221 -158q-86 -129 -98 -285q-1 -19 -1 -37q0 -138 66 -211q38 -41 89 -49l-30 -61q-131 30 -180 173q-22 67 -22 148q0 170 88 323q92 160 233 209q35 13 71 17z" glyph-name="parenleft" horiz-adv-x="397" unicode="("/>
<glyph d="M367 489q0 -170 -88 -323q-92 -160 -233 -209q-35 -13 -71 -17l-5 69q128 18 221 158q86 129 98 285q1 19 1 37q0 138 -66 211q-38 41 -89 49l30 61q131 -30 180 -173q22 -67 22 -148z" glyph-name="parenright" horiz-adv-x="397" unicode=")"/>
<glyph d="M550 622l9 -78l-188 -57l76 -148l-69 -44l-78 152l-145 -155l-59 50l145 154l-161 56l38 70l164 -57l39 185h80l-39 -185z" glyph-name="asterisk" horiz-adv-x="529" unicode="*"/>
<glyph d="M365 410h240l-15 -70h-240l-51 -240h-80l51 240h-240l15 70h240l51 240h80z" glyph-name="plus" horiz-adv-x="634" unicode="+"/>
<glyph d="M86 128l61 -38l-186 -235l-61 38z" glyph-name="comma" horiz-adv-x="187" unicode=","/>
<glyph d="M45 310h265l-15 -70h-265z" glyph-name="hyphen" horiz-adv-x="340" unicode="-"/>
<glyph d="M26 120h80l-26 -120h-80z" glyph-name="period" horiz-adv-x="206" unicode="."/>
<glyph d="M482 822l68 -33l-582 -861l-68 33z" glyph-name="slash" horiz-adv-x="430" unicode="/"/>
<glyph d="M577 567q0 -20 -5 -46l-64 -300q-25 -114 -118 -184q-75 -57 -164 -57q-102 0 -164 73q-47 57 -47 130q0 20 5 46l64 300q23 113 116 184q77 57 166 57q101 0 163 -72q48 -57 48 -131zM497 564q0 79 -59 116q-33 20 -73 20q-81 0 -144 -67q-45 -48 -58 -108l-64 -300 q-4 -18 -4 -39q0 -79 59 -116q33 -20 73 -20q81 0 145 68q44 48 57 107l64 300q4 18 4 39z" glyph-name="zero" horiz-adv-x="591" unicode="0"/>
<glyph d="M69 527l355 253l-166 -780h-80l130 612l-200 -142z" glyph-name="one" horiz-adv-x="448" unicode="1"/>
<glyph d="M526 590q-1 -87 -84 -175l-327 -345h300l-15 -70h-455l445 470q59 63 59 118q0 79 -63 104q-21 8 -44 8q-72 0 -128 -60q-32 -36 -48 -82l-65 31q39 117 143 162q46 19 94 19q94 0 148 -64q40 -48 40 -116z" glyph-name="two" horiz-adv-x="525" unicode="2"/>
<glyph d="M546 594q0 -99 -88 -168q-30 -23 -65 -38q77 -40 90 -132q2 -15 2 -29q0 -98 -70 -169q-76 -78 -196 -78q-107 0 -166 68q-43 50 -43 121l69 26q4 -97 73 -132q29 -15 66 -15q98 0 153 79q34 49 34 105q0 74 -57 106q-29 15 -67 15h-94l15 68h93q72 0 125 61 q44 50 44 108q0 65 -52 95q-26 15 -57 15q-84 0 -143 -82q-17 -25 -30 -54l-64 29q33 95 120 145q57 32 120 32q90 0 147 -66q41 -49 41 -110z" glyph-name="three" horiz-adv-x="575" unicode="3"/>
<glyph d="M-30 148l583 641l-121 -571h105l-15 -70h-105l-31 -148h-80l31 148h-367zM352 218l69 329l-300 -329h231z" glyph-name="four" horiz-adv-x="583" unicode="4"/>
<glyph d="M237 750h341l-15 -70h-270l-65 -217q37 8 72 8q111 0 174 -73q47 -55 47 -132q0 -116 -86 -201t-200 -85q-111 0 -172 77q-40 52 -43 121l69 26q6 -100 74 -137q31 -17 70 -17q84 0 149 71q58 66 58 143q0 98 -88 127q-30 10 -65 10q-76 0 -164 -33z" glyph-name="five" horiz-adv-x="597" unicode="5"/>
<glyph d="M516 267q0 -114 -87 -200q-92 -85 -206 -87q-99 0 -161 74q-47 58 -47 132q1 88 58 161l319 403h98l-226 -285q29 5 53 5q101 0 159 -77q40 -55 40 -126zM434 264q0 79 -59 116q-33 20 -73 20q-83 0 -148 -71q-58 -66 -58 -143q0 -79 59 -116q33 -20 73 -20q85 0 149 73 q57 64 57 141z" glyph-name="six" horiz-adv-x="590" unicode="6"/>
<glyph d="M116 750h430l-486 -750h-90l441 680h-309z" glyph-name="seven" horiz-adv-x="486" unicode="7"/>
<glyph d="M552 591q0 -102 -86 -169q-30 -23 -64 -37q73 -43 87 -120q2 -14 2 -28q0 -106 -87 -184q-83 -73 -185 -73q-92 0 -155 68q-49 55 -49 121q0 109 92 182q36 29 79 45q-71 52 -74 131q0 101 81 175q76 68 170 68q88 0 146 -67q43 -51 43 -112zM469 590q0 65 -51 95 q-26 15 -58 15q-71 0 -125 -61q-43 -50 -43 -108q0 -65 51 -95q26 -15 58 -15q71 0 125 61q43 50 43 108zM411 233q0 67 -55 101q-31 19 -69 19q-78 0 -138 -62q-52 -54 -52 -121q0 -68 55 -101q31 -19 70 -19q78 0 137 62q52 55 52 121z" glyph-name="eight" horiz-adv-x="566" unicode="8"/>
<glyph d="M563 575q-1 -84 -56 -155l-334 -420h-98l244 307q-21 -4 -46 -4q-99 0 -153 75q-37 52 -37 118q0 110 86 193q85 81 196 81q98 0 156 -73q42 -53 42 -122zM481 572q0 74 -57 109q-29 18 -66 18q-80 0 -141 -69q-52 -60 -52 -129q0 -74 57 -109q30 -18 67 -18q80 0 140 69 q52 59 52 129z" glyph-name="nine" horiz-adv-x="578" unicode="9"/>
<glyph d="M96 450h80l-26 -120h-80zM26 120h80l-26 -120h-80z" glyph-name="colon" horiz-adv-x="196" unicode=":"/>
<glyph d="M86 450h80l-26 -120h-80zM86 128l61 -38l-186 -235l-61 38z" glyph-name="semicolon" horiz-adv-x="186" unicode=";"/>
<glyph d="M379 668l41 -52l-305 -251l193 -245l-55 -46l-234 297z" glyph-name="less" horiz-adv-x="391" unicode="&lt;"/>
<glyph d="M67 510h560l-14 -70h-560zM25 310h560l-15 -70h-560z" glyph-name="equal" horiz-adv-x="637" unicode="="/>
<glyph d="M157 668l234 -297l-360 -297l-41 53l305 251l-193 245z" glyph-name="greater" horiz-adv-x="381" unicode="&gt;"/>
<glyph d="M569 588q0 -115 -121 -192q-34 -21 -100 -53q-56 -27 -78 -75q-9 -21 -15 -48h-80q28 128 119 175q15 8 47 22q83 37 111 67q40 42 40 106q0 69 -58 97q-28 13 -64 13q-89 0 -153 -67q-35 -37 -54 -89l-63 27q43 125 155 175q53 24 112 24q121 0 175 -85q27 -44 27 -97z M148 120h80l-26 -120h-80z" glyph-name="question" horiz-adv-x="608" unicode="?"/>
<glyph d="M846 447q0 -167 -90 -242q-45 -37 -95 -37q-57 0 -87 46q-11 18 -14 37q-54 -74 -145 -83q-10 -1 -19 -1q-88 0 -138 64q-37 48 -37 117q0 112 92 182q69 52 150 52q86 -1 131 -65l10 49l80 1l-56 -267q-2 -8 -2 -13q0 -41 30 -48q4 -1 8 -1q38 0 68 54q34 60 34 153 q0 121 -84 195q-71 60 -170 60q-136 0 -250 -101q-108 -96 -135 -227q-7 -34 -7 -67q0 -123 85 -196q69 -59 168 -59q129 1 249 98l46 -57q-138 -111 -295 -111q-147 0 -243 98q-91 93 -91 225q0 158 114 291q106 125 256 163q53 13 104 13q147 0 243 -99q90 -93 90 -224z M570 407q0 66 -51 95q-25 13 -54 13q-71 0 -124 -61q-43 -50 -43 -108q0 -65 49 -96q26 -16 56 -16q71 0 124 63q43 51 43 110z" glyph-name="at" horiz-adv-x="886" unicode="@"/>
<glyph d="M849 750h80l-159 -750h-80l30 141q-108 -125 -263 -154q-38 -7 -76 -7q-140 0 -237 95q-95 94 -95 228q0 157 114 290q106 124 252 163q54 14 105 14q149 0 241 -103q33 -37 53 -82zM777 445q0 123 -86 196q-70 59 -169 59q-136 0 -250 -101q-108 -96 -135 -227 q-7 -34 -7 -67q0 -123 85 -196q69 -59 168 -59q136 0 251 101q109 96 136 227q7 34 7 67z" glyph-name="A" horiz-adv-x="900" unicode="A"/>
<glyph d="M880 447q0 -157 -115 -291q-105 -123 -251 -162q-53 -14 -104 -14q-150 0 -243 104q-32 37 -52 81l-35 -165h-80l223 1050h80l-94 -441q108 125 263 154q38 7 76 7q140 0 237 -95q95 -94 95 -228zM800 445q0 124 -86 197q-70 58 -168 58q-136 0 -250 -101 q-108 -96 -135 -227q-7 -34 -7 -67q0 -124 86 -197q70 -58 168 -58q136 0 250 101q108 96 135 227q7 34 7 67z" glyph-name="B" horiz-adv-x="900" unicode="B"/>
<glyph d="M847 525l-70 -27q-23 107 -114 163q-64 39 -140 39q-136 0 -250 -101q-108 -96 -135 -227q-7 -34 -7 -67q0 -123 85 -196q69 -59 168 -59q137 0 253 102q50 45 85 101l69 -31q-80 -132 -218 -198q-93 -44 -189 -44q-147 0 -243 98q-91 93 -91 225q0 158 114 291 q106 125 256 163q53 13 104 13q147 0 243 -99q60 -62 80 -146z" glyph-name="C" horiz-adv-x="867" unicode="C"/>
<glyph d="M913 1050h80l-223 -1050h-80l30 141q-108 -125 -263 -154q-38 -7 -76 -7q-140 0 -237 95q-95 94 -95 228q0 157 114 290q106 124 252 163q54 14 105 14q149 0 241 -103q33 -37 53 -82zM777 445q0 123 -86 196q-70 59 -169 59q-136 0 -250 -101q-108 -96 -135 -227 q-7 -34 -7 -67q0 -123 85 -196q69 -59 168 -59q136 0 251 101q109 96 136 227q7 34 7 67z" glyph-name="D" horiz-adv-x="904" unicode="D"/>
<glyph d="M857 447q0 -55 -15 -107h-709q-2 -24 -2 -35q0 -123 85 -196q69 -59 168 -59q137 0 253 102q50 45 85 101l69 -31q-80 -132 -218 -198q-93 -44 -189 -44q-147 0 -243 98q-91 93 -91 225q0 158 114 291q106 125 256 163q53 13 104 13q147 0 243 -99q90 -93 90 -224z M776 445q0 123 -85 196q-69 59 -168 59q-135 0 -250 -101q-91 -81 -125 -189h626q2 12 2 35z" glyph-name="E" horiz-adv-x="876" unicode="E"/>
<glyph d="M560 1061l-15 -70q-32 9 -52 9q-68 0 -113 -59q-23 -31 -31 -67l-43 -204h151l-15 -70h-151l-128 -600h-80l128 600h-141l15 70h141l46 215q24 111 114 159q49 26 106 26q29 0 68 -9z" glyph-name="F" horiz-adv-x="410" unicode="F"/>
<glyph d="M850 750h80l-137 -648q-32 -150 -159 -260q-129 -113 -286 -121q-11 -1 -21 -1q-147 0 -243 99q-60 62 -80 146l70 27q23 -105 113 -162q64 -40 142 -40q136 0 252 103q107 96 136 226l4 23q-108 -126 -263 -155q-38 -7 -76 -7q-140 0 -237 95q-95 94 -95 228 q0 157 114 290q106 124 252 163q54 14 105 14q149 0 241 -103q33 -37 53 -82zM778 445q0 123 -86 196q-70 59 -169 59q-136 0 -250 -101q-108 -96 -135 -227q-7 -34 -7 -67q0 -123 85 -196q69 -59 168 -59q136 0 251 101q109 96 136 227q7 34 7 67z" glyph-name="G" horiz-adv-x="900" unicode="G"/>
<glyph d="M736 533q0 -37 -8 -69l-98 -464h-80l100 473q6 27 6 52q0 99 -77 147q-47 28 -108 28q-111 0 -202 -87q-73 -71 -93 -162l-96 -451h-80l223 1050h80l-87 -411q89 116 236 129q18 2 34 2q115 0 187 -74q63 -66 63 -163z" glyph-name="H" horiz-adv-x="761" unicode="H"/>
<glyph d="M223 1050h80l-27 -130h-80zM159 750h80l-159 -750h-80z" glyph-name="I" horiz-adv-x="213" unicode="I"/>
<glyph d="M221 1050h80l-27 -130h-80zM158 750h80l-180 -845q-24 -111 -114 -159q-49 -26 -106 -26q-29 0 -68 9l15 70q32 -9 52 -9q68 0 113 59q23 31 31 67z" glyph-name="J" horiz-adv-x="211" unicode="J"/>
<glyph d="M557 750h96l-402 -380l241 -370h-88l-245 374l-79 -374h-80l223 1050h80l-144 -676z" glyph-name="K" horiz-adv-x="623" unicode="K"/>
<glyph d="M223 1050h80l-223 -1050h-80z" glyph-name="L" horiz-adv-x="213" unicode="L"/>
<glyph d="M1086 576q0 -28 -6 -60l-110 -516h-80l111 521q6 29 6 52q0 95 -85 121q-25 7 -54 7q-101 0 -170 -70q-49 -50 -65 -125l-108 -506h-80l111 521q6 29 6 52q0 95 -85 121q-25 7 -54 7q-101 0 -170 -70q-49 -50 -65 -125l-108 -506h-80l159 750h80l-18 -85q51 72 144 97 q33 8 63 8q89 0 147 -53q37 -35 46 -81q72 111 205 130q24 4 47 4q106 0 166 -66q47 -52 47 -128z" glyph-name="M" horiz-adv-x="1106" unicode="M"/>
<glyph d="M736 533q0 -37 -8 -69l-98 -464h-80l100 473q6 27 6 52q0 99 -77 147q-47 28 -108 28q-111 0 -202 -87q-73 -71 -93 -162l-96 -451h-80l159 750h80l-23 -111q89 116 236 129q18 2 34 2q115 0 187 -74q63 -66 63 -163z" glyph-name="N" horiz-adv-x="761" unicode="N"/>
<glyph d="M857 447q0 -159 -114 -292q-106 -124 -256 -162q-52 -13 -103 -13q-147 0 -243 98q-91 93 -91 225q0 158 114 291q106 125 256 163q53 13 104 13q147 0 243 -99q90 -93 90 -224zM776 445q0 123 -85 196q-69 59 -168 59q-136 0 -250 -101q-108 -96 -135 -227 q-7 -34 -7 -67q0 -123 85 -196q69 -59 168 -59q136 0 250 101q108 96 135 227q7 34 7 67z" glyph-name="O" horiz-adv-x="876" unicode="O"/>
<glyph d="M880 447q0 -157 -114 -290q-106 -124 -252 -163q-54 -14 -105 -14q-149 0 -241 103q-33 37 -53 82l-95 -445h-80l219 1030h80l-30 -141q108 125 263 154q38 7 76 7q140 0 237 -95q95 -94 95 -228zM799 445q0 123 -85 196q-69 59 -168 59q-136 0 -251 -101 q-109 -96 -136 -227q-7 -34 -7 -67q0 -123 86 -196q70 -59 169 -59q136 0 250 101q108 96 135 227q7 34 7 67z" glyph-name="P" horiz-adv-x="899" unicode="P"/>
<glyph d="M849 750h80l-219 -1030h-80l90 421q-108 -125 -263 -154q-38 -7 -76 -7q-140 0 -237 95q-95 94 -95 228q0 157 114 290q106 124 252 163q54 14 105 14q149 0 241 -103q33 -37 53 -82zM777 445q0 123 -86 196q-70 59 -169 59q-136 0 -250 -101q-108 -96 -135 -227 q-7 -34 -7 -67q0 -123 85 -196q69 -59 168 -59q136 0 251 101q109 96 136 227q7 34 7 67z" glyph-name="Q" horiz-adv-x="900" unicode="Q"/>
<glyph d="M501 764l-15 -72q-22 8 -52 8q-99 0 -176 -80q-59 -61 -76 -140l-102 -480h-80l159 750h80l-20 -97q54 89 165 111q29 6 58 6q30 0 59 -6z" glyph-name="R" horiz-adv-x="451" unicode="R"/>
<glyph d="M597 571l-67 -24q-5 104 -89 140q-33 14 -70 14q-82 0 -137 -55q-47 -46 -47 -110q0 -52 46 -85q18 -12 38 -17l122 -30q99 -24 133 -112q13 -34 13 -71q0 -97 -74 -167q-80 -75 -209 -75q-131 0 -199 78q-42 49 -47 120l72 28q0 -90 78 -132q42 -23 94 -23q109 0 168 75 q34 44 34 93q0 70 -63 102q-15 8 -32 12l-116 29q-77 19 -116 90q-21 40 -21 83q0 120 101 188q72 49 162 49q115 0 178 -74q43 -51 48 -126z" glyph-name="S" horiz-adv-x="607" unicode="S"/>
<glyph d="M306 670h141l-15 -70h-141l-128 -600h-80l128 600h-141l15 70h141l81 380h80z" glyph-name="T" horiz-adv-x="386" unicode="T"/>
<glyph d="M716 750h80l-159 -750h-80l23 111q-89 -116 -236 -129q-18 -2 -34 -2q-115 0 -187 74q-63 66 -63 163q0 37 8 69l98 464h80l-100 -473q-6 -27 -6 -52q0 -99 77 -147q47 -28 108 -28q111 0 202 87q73 71 93 162z" glyph-name="U" horiz-adv-x="766" unicode="U"/>
<glyph d="M720 750h88l-529 -779l-199 779h77l154 -603z" glyph-name="V" horiz-adv-x="708" unicode="V"/>
<glyph d="M991 750h79l-447 -780l-85 574l-333 -575l-125 781h71l94 -582l334 582l85 -575z" glyph-name="W" horiz-adv-x="970" unicode="W"/>
<glyph d="M643 750h104l-367 -381l205 -369h-87l-173 312l-301 -312h-104l367 381l-205 369h87l173 -312z" glyph-name="X" horiz-adv-x="647" unicode="X"/>
<glyph d="M720 750h88l-567 -893q-87 -136 -225 -137q-53 0 -87 16q-4 2 -6 4l15 70q29 -17 80 -19q96 1 156 96l90 143l-184 720h77l162 -634z" glyph-name="Y" horiz-adv-x="708" unicode="Y"/>
<glyph d="M118 750h560l-584 -680h411l-15 -70h-560l585 680h-411z" glyph-name="Z" horiz-adv-x="578" unicode="Z"/>
<glyph d="M185 750h215l-15 -70h-135l-155 -730h135l-15 -70h-215z" glyph-name="bracketleft" horiz-adv-x="360" unicode="["/>
<glyph d="M161 822l213 -866l-71 -28l-213 866z" glyph-name="backslash" horiz-adv-x="434" unicode="\"/>
<glyph d="M155 750h215l-185 -870h-215l15 70h135l155 730h-135z" glyph-name="bracketright" horiz-adv-x="340" unicode="]"/>
<glyph d="M-75 -60h415l-15 -70h-415z" glyph-name="underscore" horiz-adv-x="400" unicode="_"/>
<glyph d="M287 785l199 -141l-43 -55l-199 141z" glyph-name="grave" unicode="`"/>
<glyph d="M489 450h80l-97 -450h-80l14 62q-69 -76 -169 -81h-12q-97 0 -154 68q-46 56 -46 138q0 126 99 211q85 71 186 71q106 0 160 -77q3 -4 5 -7zM444 263q0 80 -60 117q-32 20 -72 20q-85 0 -149 -71q-57 -63 -57 -139q0 -77 56 -117q34 -23 76 -23q84 0 149 72q57 65 57 141 z" glyph-name="a" horiz-adv-x="604" unicode="a"/>
<glyph d="M542 262q0 -126 -99 -210q-85 -71 -186 -71q-106 0 -160 76l-4 6l-13 -63h-80l160 750h80l-77 -361q77 77 179 80q99 0 156 -70q44 -55 44 -137zM461 260q0 77 -56 117q-34 23 -76 23q-83 0 -147 -71q-58 -66 -58 -143q0 -79 59 -116q32 -20 72 -20q85 0 149 71 q57 63 57 139z" glyph-name="b" horiz-adv-x="597" unicode="b"/>
<glyph d="M509 345l-68 -35q-43 89 -129 90q-84 0 -148 -70q-58 -65 -58 -142q0 -78 58 -116q33 -22 74 -22q92 1 166 90l63 -42q-69 -89 -176 -112q-30 -6 -58 -6q-99 0 -161 75q-47 58 -47 132q0 115 89 199q91 82 204 84q99 0 160 -74q19 -24 31 -51z" glyph-name="c" horiz-adv-x="538" unicode="c"/>
<glyph d="M553 750h80l-161 -750h-80l14 62q-69 -76 -169 -81h-12q-97 0 -154 68q-46 56 -46 138q0 126 99 211q85 71 186 71q102 0 157 -72l8 -12zM444 263q0 80 -60 117q-32 20 -72 20q-85 0 -149 -71q-57 -63 -57 -139q0 -77 56 -117q34 -23 76 -23q84 0 149 72q57 65 57 141z " glyph-name="d" horiz-adv-x="603" unicode="d"/>
<glyph d="M525 262q0 -34 -10 -72h-409v-2q0 -78 58 -116q33 -22 74 -22q92 1 166 90l63 -42q-69 -89 -176 -112q-30 -6 -58 -6q-99 0 -161 75q-47 58 -47 132q0 115 89 199q91 82 204 84q99 0 160 -75q47 -58 47 -133zM448 262q0 75 -58 115q-35 23 -78 23q-85 0 -149 -72 q-28 -32 -43 -69h328v3z" glyph-name="e" unicode="e"/>
<glyph d="M380 765l-16 -72q-19 5 -34 5q-61 0 -77 -56q-1 -3 -1 -5l-48 -227h101l-15 -70h-100l-73 -340h-80l73 340h-80l14 70h80l53 247q16 76 94 103q30 10 63 10q20 0 46 -5z" glyph-name="f" horiz-adv-x="309" unicode="f"/>
<glyph d="M484 450h80l-107 -503q-24 -112 -122 -177q-76 -50 -165 -50q-100 0 -161 76q-18 23 -29 49l71 37q21 -67 85 -86q19 -6 40 -6q88 0 151 68q40 43 51 97l23 108q-76 -80 -181 -82q-97 0 -154 68q-46 56 -46 138q0 126 99 211q85 71 186 71q106 0 160 -77q3 -4 5 -7z M439 263q0 80 -60 117q-32 20 -72 20q-85 0 -149 -71q-57 -63 -57 -139q0 -77 56 -117q34 -23 76 -23q84 0 149 72q57 65 57 141z" glyph-name="g" horiz-adv-x="604" unicode="g"/>
<glyph d="M473 315q0 -13 -4 -38l-59 -277h-80l61 285q2 10 2 26q0 61 -54 82q-20 8 -44 8q-69 0 -120 -57q-28 -34 -37 -72l-58 -272h-80l160 750h80l-76 -354q48 69 136 74h10q83 0 130 -57q33 -41 33 -98z" glyph-name="h" horiz-adv-x="537" unicode="h"/>
<glyph d="M159 750h80l-25 -120h-80zM96 450h80l-96 -450h-80z" glyph-name="i" horiz-adv-x="209" unicode="i"/>
<glyph d="M159 750h80l-25 -120h-80zM96 450h80l-132 -617q-17 -77 -96 -103q-29 -10 -61 -10q-22 0 -46 5l15 72q20 -5 35 -5q60 0 75 55l2 6z" glyph-name="j" horiz-adv-x="209" unicode="j"/>
<glyph d="M362 450h99l-240 -232l144 -218h-89l-148 224l-48 -224h-80l159 750h80l-111 -526z" glyph-name="k" horiz-adv-x="431" unicode="k"/>
<glyph d="M159 750h80l-159 -750h-80z" glyph-name="l" horiz-adv-x="209" unicode="l"/>
<glyph d="M681 335q0 -19 -4 -35l-63 -300h-80l64 303q3 14 3 26q0 54 -46 68q-11 3 -23 3q-66 0 -102 -52q-13 -21 -19 -46l-64 -302h-80l65 308q3 14 3 26q0 54 -51 64q-9 2 -19 2q-56 0 -95 -49q-20 -26 -28 -59l-62 -292h-80l96 450h80l-11 -48q31 50 94 64q17 4 32 4 q63 0 93 -51q5 -8 8 -17q67 64 148 68q69 0 111 -50q30 -37 30 -85z" glyph-name="m" horiz-adv-x="745" unicode="m"/>
<glyph d="M473 315q0 -13 -4 -38l-59 -277h-80l61 285q2 10 2 26q0 61 -54 82q-20 8 -44 8q-69 0 -120 -57q-28 -34 -37 -72l-58 -272h-80l96 450h80l-12 -54q48 69 136 74h10q83 0 130 -57q33 -41 33 -98z" glyph-name="n" horiz-adv-x="537" unicode="n"/>
<glyph d="M525 262q0 -113 -88 -197q-92 -83 -204 -85q-99 0 -161 75q-47 58 -47 132q0 115 89 199q91 82 204 84q99 0 160 -75q47 -58 47 -133zM444 262q0 78 -58 116q-33 22 -74 22q-84 0 -148 -70q-58 -65 -58 -142q0 -78 58 -116q33 -22 74 -22q85 0 149 72q57 64 57 140z" glyph-name="o" unicode="o"/>
<glyph d="M556 262q0 -126 -99 -210q-85 -71 -186 -71q-106 0 -160 76q-3 4 -5 8l-71 -335h-80l154 720h80l-14 -63q69 77 170 82h11q99 0 156 -70q44 -55 44 -137zM475 260q0 77 -56 117q-34 23 -76 23q-83 0 -148 -71q-58 -66 -58 -143q0 -79 59 -116q33 -20 73 -20q85 0 149 71 q57 63 57 139z" glyph-name="p" horiz-adv-x="611" unicode="p"/>
<glyph d="M488 450h80l-154 -720h-80l70 331q-76 -77 -179 -80q-97 0 -154 68q-46 56 -46 138q0 126 99 211q85 71 186 71q108 0 161 -78q2 -3 3 -5zM443 263q0 80 -59 117q-32 20 -72 20q-85 0 -149 -71q-57 -63 -57 -139q0 -77 56 -117q34 -23 76 -23q84 0 148 72q57 65 57 141z " glyph-name="q" horiz-adv-x="612" unicode="q"/>
<glyph d="M347 467l-15 -72q-17 5 -37 5q-70 0 -121 -58q-28 -32 -36 -70l-58 -272h-80l96 450h80l-11 -51q45 71 140 71q21 0 42 -3z" glyph-name="r" horiz-adv-x="327" unicode="r"/>
<glyph d="M403 360l-72 -26q-12 54 -73 67q-13 2 -25 2q-65 0 -91 -47q-8 -16 -8 -32q0 -34 31 -44q2 -1 4 -1l81 -19q89 -21 109 -90q4 -16 4 -31q0 -68 -60 -116q-56 -43 -136 -43q-112 0 -157 64q-15 21 -20 47l72 26q27 -66 107 -70q59 0 94 44q18 23 18 45q0 40 -51 52h-2 l-81 19q-71 17 -89 79q-5 17 -5 33q0 84 83 127q48 24 101 24q91 0 139 -54q20 -25 27 -56z" glyph-name="s" horiz-adv-x="433" unicode="s"/>
<glyph d="M204 410h80l-14 -70h-80l-73 -340h-80l73 340h-80l14 70h80l73 340h80z" glyph-name="t" horiz-adv-x="284" unicode="t"/>
<glyph d="M423 450h80l-96 -450h-80l12 55q-57 -71 -147 -75q-81 0 -128 57q-34 41 -34 98q0 21 4 38l59 277h80l-61 -285q-3 -14 -3 -26q0 -60 53 -82q21 -8 45 -8q70 0 121 58q28 33 37 71z" glyph-name="u" horiz-adv-x="537" unicode="u"/>
<glyph d="M407 450h97l-343 -477l-141 477h85l88 -299z" glyph-name="v" horiz-adv-x="454" unicode="v"/>
<glyph d="M586 450h89l-301 -485l-61 315l-198 -315l-95 485h82l53 -285l197 302l58 -295z" glyph-name="w" horiz-adv-x="645" unicode="w"/>
<glyph d="M377 450h96l-228 -229l132 -221h-83l-101 169l-167 -169h-96l227 229l-131 221h83l100 -169z" glyph-name="x" horiz-adv-x="433" unicode="x"/>
<glyph d="M405 450h85l-413 -647q-55 -82 -145 -83q-39 0 -82 18l15 69q28 -18 63 -18q57 1 87 47l99 156l-98 458h76l77 -372z" glyph-name="y" horiz-adv-x="449" unicode="y"/>
<glyph d="M48 450h379l-327 -380h231l-15 -70h-376l327 380h-234z" glyph-name="z" horiz-adv-x="407" unicode="z"/>
<glyph d="M375 750h24l-15 -70h-17q-81 0 -107 -73q-4 -10 -6 -20l-33 -156q-20 -85 -93 -121q43 -32 43 -92q0 -21 -4 -38l-28 -136q-3 -15 -3 -27q2 -65 76 -66h17l-15 -70h-16q-90 0 -126 66q-16 29 -16 66q0 18 5 41l28 133q3 14 3 25q0 58 -63 67q-10 1 -19 1l15 70 q78 0 109 64q6 14 10 30l32 150q25 114 128 146q33 10 71 10z" glyph-name="braceleft" horiz-adv-x="348" unicode="{"/>
<glyph d="M155 750h80l-185 -870h-80z" glyph-name="bar" horiz-adv-x="205" unicode="|"/>
<glyph d="M339 350l-15 -70q-79 0 -109 -64q-7 -14 -10 -29l-32 -151q-24 -112 -126 -144q-34 -11 -73 -11h-24l15 70h16q88 0 112 83q1 6 2 10l33 156q21 87 93 120q-43 33 -43 93q0 20 4 38l28 135q3 15 3 28q-2 65 -77 66h-16l15 70h16q90 0 126 -66q16 -29 16 -66q0 -18 -5 -42 l-28 -132q-3 -14 -3 -25q0 -57 60 -67q11 -2 22 -2z" glyph-name="braceright" horiz-adv-x="338" unicode="}"/>
<glyph glyph-name="nbspace" horiz-adv-x="200" unicode=" "/>
<glyph d="M129 750h80l-26 -120h-80zM82 530h80l-112 -530h-80z" glyph-name="exclamdown" horiz-adv-x="209" unicode="¡"/>
<glyph d="M509 345l-68 -35q-32 64 -84 83l-72 -336q66 19 119 83l63 -42q-71 -90 -179 -113q-10 -2 -19 -3l-26 -122h-74l26 123q-92 17 -140 96q-30 50 -30 108q0 115 90 199q80 75 184 83l25 117h74l-26 -123q87 -22 130 -103q4 -8 7 -15zM210 53l74 345q-83 -14 -137 -90 q-41 -57 -41 -120q0 -76 56 -115q22 -15 48 -20z" glyph-name="cent" horiz-adv-x="538" unicode="¢"/>
<glyph d="M542 587l-69 -29v17q0 76 -61 109q-29 16 -61 16q-68 0 -103 -60q-24 -41 -24 -100v-130h223l-15 -70h-208v-270h201l-15 -70h-410l15 70h133v270h-76l15 70h61v138q0 131 95 191q50 31 112 31q93 0 146 -63q41 -49 41 -120z" glyph-name="sterling" horiz-adv-x="566" unicode="£"/>
<glyph d="M658 750h98l-299 -328h159l-15 -69h-220l-21 -100h220l-15 -70h-220l-39 -183h-80l39 183h-220l15 70h220l21 100h-220l15 69h159l-160 328h80l168 -345z" glyph-name="yen" horiz-adv-x="711" unicode="¥"/>
<glyph d="M449 750h80l-22 -100h-80zM229 750h80l-22 -100h-80z" glyph-name="dieresis" unicode="¨"/>
<glyph d="M857 447q0 -159 -114 -292q-106 -124 -256 -162q-52 -13 -103 -13q-147 0 -243 98q-91 93 -91 225q0 158 114 291q106 125 256 163q53 13 104 13q147 0 243 -99q90 -93 90 -224zM776 445q0 123 -85 196q-69 59 -168 59q-136 0 -250 -101q-108 -96 -135 -227 q-7 -34 -7 -67q0 -123 85 -196q69 -59 168 -59q136 0 250 101q108 96 135 227q7 34 7 67zM693 497l-71 -36q-20 65 -83 85q-21 6 -43 6q-84 0 -148 -70q-58 -65 -58 -142q0 -78 58 -116q33 -22 74 -22q85 0 150 72q8 10 15 19l64 -43q-69 -89 -176 -112q-30 -6 -58 -6 q-99 0 -161 75q-47 58 -47 132q0 115 90 199q91 82 203 84q101 0 162 -76q18 -23 29 -49z" glyph-name="copyright" horiz-adv-x="876" unicode="©"/>
<glyph d="M422 426l41 -52l-157 -129l97 -123l-55 -45l-138 174zM212 426l41 -52l-157 -129l97 -123l-55 -45l-138 174z" glyph-name="guillemotleft" horiz-adv-x="473" unicode="«"/>
<glyph d="M147 750h305l-14 -70h-305z" glyph-name="macron" horiz-adv-x="590" unicode="¯"/>
<glyph d="M475 610q0 -90 -73 -153q-63 -54 -141 -54q-80 0 -128 62q-33 44 -33 97q0 90 72 153q63 55 141 55q79 0 128 -62q34 -44 34 -98zM404 611q0 55 -44 81q-22 13 -47 13q-61 0 -107 -55q-35 -42 -35 -88q0 -55 44 -81q22 -13 47 -13q61 0 107 54q35 42 35 89z" glyph-name="degree" horiz-adv-x="494" unicode="°"/>
<glyph d="M446 785l41 -60l-223 -136l-41 60z" glyph-name="acute" unicode="´"/>
<glyph d="M276 -133q0 -54 -44 -82q-25 -16 -58 -16q-52 0 -78 44q-7 12 -10 24l51 26q15 -37 36 -38q32 0 41 30q2 7 2 13q-2 27 -28 28q-11 -1 -26 -15l-5 -5l-41 38l118 120l42 -39l-49 -48q48 -26 49 -80z" glyph-name="cedilla" horiz-adv-x="538" unicode="¸"/>
<glyph d="M305 426l138 -175l-212 -174l-41 52l157 129l-97 123zM95 426l138 -175l-212 -174l-41 52l157 129l-97 123z" glyph-name="guillemotright" horiz-adv-x="463" unicode="»"/>
<glyph d="M406 770h80l-25 -120h-80zM446 226l63 -28q-42 -123 -153 -173q-55 -25 -114 -25q-121 0 -175 84q-27 44 -27 97q0 113 116 189q34 23 104 57q56 26 78 76q9 21 15 47h80q-26 -127 -117 -174q-1 -1 -2 -1q-15 -8 -46 -22q-83 -38 -112 -68q-39 -43 -39 -106q0 -68 57 -96 q28 -13 64 -13q89 0 154 67q35 38 54 89z" glyph-name="questiondown" horiz-adv-x="608" unicode="¿"/>
<glyph d="M466 975l223 -90l-31 -66l-223 90zM849 750h80l-159 -750h-80l30 141q-108 -125 -263 -154q-38 -7 -76 -7q-140 0 -237 95q-95 94 -95 228q0 157 114 290q106 124 252 163q54 14 105 14q149 0 241 -103q33 -37 53 -82zM777 445q0 123 -86 196q-70 59 -169 59 q-136 0 -250 -101q-108 -96 -135 -227q-7 -34 -7 -67q0 -123 85 -196q69 -59 168 -59q136 0 251 101q109 96 136 227q7 34 7 67z" glyph-name="Agrave" horiz-adv-x="900" unicode="À"/>
<glyph d="M673 975l18 -66l-261 -90l-17 66zM849 750h80l-159 -750h-80l30 141q-108 -125 -263 -154q-38 -7 -76 -7q-140 0 -237 95q-95 94 -95 228q0 157 114 290q106 124 252 163q54 14 105 14q149 0 241 -103q33 -37 53 -82zM777 445q0 123 -86 196q-70 59 -169 59 q-136 0 -250 -101q-108 -96 -135 -227q-7 -34 -7 -67q0 -123 85 -196q69 -59 168 -59q136 0 251 101q109 96 136 227q7 34 7 67z" glyph-name="Aacute" horiz-adv-x="900" unicode="Á"/>
<glyph d="M561 968l142 -87l-36 -59l-110 69l-149 -69l-24 62zM849 750h80l-159 -750h-80l30 141q-108 -125 -263 -154q-38 -7 -76 -7q-140 0 -237 95q-95 94 -95 228q0 157 114 290q106 124 252 163q54 14 105 14q149 0 241 -103q33 -37 53 -82zM777 445q0 123 -86 196 q-70 59 -169 59q-136 0 -250 -101q-108 -96 -135 -227q-7 -34 -7 -67q0 -123 85 -196q69 -59 168 -59q136 0 251 101q109 96 136 227q7 34 7 67z" glyph-name="Acircumflex" horiz-adv-x="900" unicode="Â"/>
<glyph d="M849 750h80l-159 -750h-80l30 141q-108 -125 -263 -154q-38 -7 -76 -7q-140 0 -237 95q-95 94 -95 228q0 157 114 290q106 124 252 163q54 14 105 14q149 0 241 -103q33 -37 53 -82zM777 445q0 123 -86 196q-70 59 -169 59q-136 0 -250 -101q-108 -96 -135 -227 q-7 -34 -7 -67q0 -123 85 -196q69 -59 168 -59q136 0 251 101q109 96 136 227q7 34 7 67zM689 950h58q-13 -61 -65 -88q-24 -13 -50 -13q-48 0 -75 31q-20 22 -32 25q-7 2 -14 2q-32 0 -50 -31q-4 -8 -6 -16h-58q13 61 65 88q25 13 51 13q47 0 73 -30q20 -21 32 -25 q8 -2 16 -2q31 0 48 29q5 9 7 17z" glyph-name="Atilde" horiz-adv-x="900" unicode="Ã"/>
<glyph d="M849 750h80l-159 -750h-80l30 141q-108 -125 -263 -154q-38 -7 -76 -7q-140 0 -237 95q-95 94 -95 228q0 157 114 290q106 124 252 163q54 14 105 14q149 0 241 -103q33 -37 53 -82zM777 445q0 123 -86 196q-70 59 -169 59q-136 0 -250 -101q-108 -96 -135 -227 q-7 -34 -7 -67q0 -123 85 -196q69 -59 168 -59q136 0 251 101q109 96 136 227q7 34 7 67zM635 944h80l-22 -100h-80zM415 944h80l-22 -100h-80z" glyph-name="Adieresis" horiz-adv-x="900" unicode="Ä"/>
<glyph d="M849 750h80l-159 -750h-80l30 141q-108 -125 -263 -154q-38 -7 -76 -7q-140 0 -237 95q-95 94 -95 228q0 157 114 290q106 124 252 163q54 14 105 14q149 0 241 -103q33 -37 53 -82zM777 445q0 123 -86 196q-70 59 -169 59q-136 0 -250 -101q-108 -96 -135 -227 q-7 -34 -7 -67q0 -123 85 -196q69 -59 168 -59q136 0 251 101q109 96 136 227q7 34 7 67zM646 907q0 -56 -48 -86q-25 -15 -54 -15q-56 0 -85 47q-16 25 -16 54q0 57 47 87q25 15 54 15q57 0 87 -48q15 -25 15 -54zM591 907q0 31 -28 43q-10 4 -19 4q-30 0 -42 -28 q-4 -10 -4 -19q0 -30 28 -42q9 -4 18 -4q31 0 43 28q4 9 4 18z" glyph-name="Aring" horiz-adv-x="900" unicode="Å"/>
<glyph d="M1567 447q0 -55 -15 -107h-709q-2 -24 -2 -35q0 -123 85 -196q69 -59 168 -59q137 0 253 102q50 45 85 101l69 -31q-80 -132 -218 -198q-93 -44 -189 -44q-145 0 -242 97q-30 31 -51 68l-31 -145h-80l30 141q-108 -125 -263 -154q-38 -7 -76 -7q-140 0 -237 95 q-95 94 -95 228q0 157 114 290q106 124 252 163q54 14 105 14q149 0 241 -103q33 -37 53 -82l35 165h80l-26 -124q118 118 272 140q30 4 59 4q147 0 243 -99q90 -93 90 -224zM1486 445q0 123 -85 196q-69 59 -168 59q-135 0 -250 -101q-91 -81 -125 -189h626q2 12 2 35z M777 445q0 123 -86 196q-70 59 -169 59q-136 0 -250 -101q-108 -96 -135 -227q-7 -34 -7 -67q0 -123 85 -196q69 -59 168 -59q136 0 251 101q109 96 136 227q7 34 7 67z" glyph-name="AE" horiz-adv-x="1587" unicode="Æ"/>
<glyph d="M396 -133q0 -54 -44 -82q-25 -16 -58 -16q-52 0 -78 44q-7 12 -10 24l51 26q15 -37 36 -38q32 0 41 30q2 7 2 13q-2 27 -28 28q-11 -1 -26 -15l-5 -5l-41 38l118 120l42 -39l-49 -48q48 -26 49 -80zM847 525l-70 -27q-23 107 -114 163q-64 39 -140 39q-136 0 -250 -101 q-108 -96 -135 -227q-7 -34 -7 -67q0 -123 85 -196q69 -59 168 -59q137 0 253 102q50 45 85 101l69 -31q-80 -132 -218 -198q-93 -44 -189 -44q-147 0 -243 98q-91 93 -91 225q0 158 114 291q106 125 256 163q53 13 104 13q147 0 243 -99q60 -62 80 -146z" glyph-name="Ccedilla" horiz-adv-x="867" unicode="Ç"/>
<glyph d="M466 975l223 -90l-31 -66l-223 90zM857 447q0 -55 -15 -107h-709q-2 -24 -2 -35q0 -123 85 -196q69 -59 168 -59q137 0 253 102q50 45 85 101l69 -31q-80 -132 -218 -198q-93 -44 -189 -44q-147 0 -243 98q-91 93 -91 225q0 158 114 291q106 125 256 163q53 13 104 13 q147 0 243 -99q90 -93 90 -224zM776 445q0 123 -85 196q-69 59 -168 59q-135 0 -250 -101q-91 -81 -125 -189h626q2 12 2 35z" glyph-name="Egrave" horiz-adv-x="876" unicode="È"/>
<glyph d="M673 975l18 -66l-261 -90l-17 66zM857 447q0 -55 -15 -107h-709q-2 -24 -2 -35q0 -123 85 -196q69 -59 168 -59q137 0 253 102q50 45 85 101l69 -31q-80 -132 -218 -198q-93 -44 -189 -44q-147 0 -243 98q-91 93 -91 225q0 158 114 291q106 125 256 163q53 13 104 13 q147 0 243 -99q90 -93 90 -224zM776 445q0 123 -85 196q-69 59 -168 59q-135 0 -250 -101q-91 -81 -125 -189h626q2 12 2 35z" glyph-name="Eacute" horiz-adv-x="876" unicode="É"/>
<glyph d="M561 968l142 -87l-36 -59l-110 69l-149 -69l-24 62zM857 447q0 -55 -15 -107h-709q-2 -24 -2 -35q0 -123 85 -196q69 -59 168 -59q137 0 253 102q50 45 85 101l69 -31q-80 -132 -218 -198q-93 -44 -189 -44q-147 0 -243 98q-91 93 -91 225q0 158 114 291q106 125 256 163 q53 13 104 13q147 0 243 -99q90 -93 90 -224zM776 445q0 123 -85 196q-69 59 -168 59q-135 0 -250 -101q-91 -81 -125 -189h626q2 12 2 35z" glyph-name="Ecircumflex" horiz-adv-x="876" unicode="Ê"/>
<glyph d="M857 447q0 -55 -15 -107h-709q-2 -24 -2 -35q0 -123 85 -196q69 -59 168 -59q137 0 253 102q50 45 85 101l69 -31q-80 -132 -218 -198q-93 -44 -189 -44q-147 0 -243 98q-91 93 -91 225q0 158 114 291q106 125 256 163q53 13 104 13q147 0 243 -99q90 -93 90 -224z M776 445q0 123 -85 196q-69 59 -168 59q-135 0 -250 -101q-91 -81 -125 -189h626q2 12 2 35zM635 944h80l-22 -100h-80zM415 944h80l-22 -100h-80z" glyph-name="Edieresis" horiz-adv-x="876" unicode="Ë"/>
<glyph d="M146 975l223 -90l-31 -66l-223 90zM159 750h80l-159 -750h-80z" glyph-name="Igrave" horiz-adv-x="213" unicode="Ì"/>
<glyph d="M363 975l18 -66l-261 -90l-17 66zM159 750h80l-159 -750h-80z" glyph-name="Iacute" horiz-adv-x="213" unicode="Í"/>
<glyph d="M241 968l142 -87l-36 -59l-110 69l-149 -69l-24 62zM159 750h80l-159 -750h-80z" glyph-name="Icircumflex" horiz-adv-x="213" unicode="Î"/>
<glyph d="M159 750h80l-159 -750h-80zM314 944h80l-22 -100h-80zM94 944h80l-22 -100h-80z" glyph-name="Idieresis" horiz-adv-x="213" unicode="Ï"/>
<glyph d="M797 439q0 -156 -114 -282q-107 -118 -258 -148q-42 -9 -84 -9h-262l73 346h-112l14 65h112l72 339h246q138 0 229 -97q84 -89 84 -214zM715 439q0 118 -84 187q-68 54 -163 54h-165l-57 -269h113l-14 -65h-113l-58 -276h165q131 0 241 95q108 93 130 220q5 27 5 54z" glyph-name="Eth" horiz-adv-x="765" unicode="Ð"/>
<glyph d="M736 533q0 -37 -8 -69l-98 -464h-80l100 473q6 27 6 52q0 99 -77 147q-47 28 -108 28q-111 0 -202 -87q-73 -71 -93 -162l-96 -451h-80l159 750h80l-23 -111q89 116 236 129q18 2 34 2q115 0 187 -74q63 -66 63 -163zM629 950h58q-13 -61 -65 -88q-24 -13 -50 -13 q-48 0 -75 31q-20 22 -32 25q-7 2 -14 2q-32 0 -50 -31q-4 -8 -6 -16h-58q13 61 65 88q25 13 51 13q47 0 73 -30q20 -21 32 -25q8 -2 16 -2q31 0 48 29q5 9 7 17z" glyph-name="Ntilde" horiz-adv-x="761" unicode="Ñ"/>
<glyph d="M466 975l223 -90l-31 -66l-223 90zM857 447q0 -159 -114 -292q-106 -124 -256 -162q-52 -13 -103 -13q-147 0 -243 98q-91 93 -91 225q0 158 114 291q106 125 256 163q53 13 104 13q147 0 243 -99q90 -93 90 -224zM776 445q0 123 -85 196q-69 59 -168 59 q-136 0 -250 -101q-108 -96 -135 -227q-7 -34 -7 -67q0 -123 85 -196q69 -59 168 -59q136 0 250 101q108 96 135 227q7 34 7 67z" glyph-name="Ograve" horiz-adv-x="876" unicode="Ò"/>
<glyph d="M673 975l18 -66l-261 -90l-17 66zM857 447q0 -159 -114 -292q-106 -124 -256 -162q-52 -13 -103 -13q-147 0 -243 98q-91 93 -91 225q0 158 114 291q106 125 256 163q53 13 104 13q147 0 243 -99q90 -93 90 -224zM776 445q0 123 -85 196q-69 59 -168 59q-136 0 -250 -101 q-108 -96 -135 -227q-7 -34 -7 -67q0 -123 85 -196q69 -59 168 -59q136 0 250 101q108 96 135 227q7 34 7 67z" glyph-name="Oacute" horiz-adv-x="876" unicode="Ó"/>
<glyph d="M561 968l142 -87l-36 -59l-110 69l-149 -69l-24 62zM857 447q0 -159 -114 -292q-106 -124 -256 -162q-52 -13 -103 -13q-147 0 -243 98q-91 93 -91 225q0 158 114 291q106 125 256 163q53 13 104 13q147 0 243 -99q90 -93 90 -224zM776 445q0 123 -85 196q-69 59 -168 59 q-136 0 -250 -101q-108 -96 -135 -227q-7 -34 -7 -67q0 -123 85 -196q69 -59 168 -59q136 0 250 101q108 96 135 227q7 34 7 67z" glyph-name="Ocircumflex" horiz-adv-x="876" unicode="Ô"/>
<glyph d="M857 447q0 -159 -114 -292q-106 -124 -256 -162q-52 -13 -103 -13q-147 0 -243 98q-91 93 -91 225q0 158 114 291q106 125 256 163q53 13 104 13q147 0 243 -99q90 -93 90 -224zM776 445q0 123 -85 196q-69 59 -168 59q-136 0 -250 -101q-108 -96 -135 -227 q-7 -34 -7 -67q0 -123 85 -196q69 -59 168 -59q136 0 250 101q108 96 135 227q7 34 7 67zM669 950h58q-13 -61 -65 -88q-24 -13 -50 -13q-48 0 -75 31q-20 22 -32 25q-7 2 -14 2q-32 0 -50 -31q-4 -8 -6 -16h-58q13 61 65 88q25 13 51 13q47 0 73 -30q20 -21 32 -25 q8 -2 16 -2q31 0 48 29q5 9 7 17z" glyph-name="Otilde" horiz-adv-x="876" unicode="Õ"/>
<glyph d="M857 447q0 -159 -114 -292q-106 -124 -256 -162q-52 -13 -103 -13q-147 0 -243 98q-91 93 -91 225q0 158 114 291q106 125 256 163q53 13 104 13q147 0 243 -99q90 -93 90 -224zM776 445q0 123 -85 196q-69 59 -168 59q-136 0 -250 -101q-108 -96 -135 -227 q-7 -34 -7 -67q0 -123 85 -196q69 -59 168 -59q136 0 250 101q108 96 135 227q7 34 7 67zM635 944h80l-22 -100h-80zM415 944h80l-22 -100h-80z" glyph-name="Odieresis" horiz-adv-x="876" unicode="Ö"/>
<glyph d="M533 598l42 -52l-215 -175l127 -173l-56 -46l-127 173l-213 -173l-41 55l214 173l-126 171l55 47l127 -173z" glyph-name="multiply" horiz-adv-x="625" unicode="×"/>
<glyph d="M857 447q0 -159 -114 -292q-106 -124 -256 -162q-52 -13 -103 -13q-76 0 -137 27l-50 -74l-61 32l50 75q-105 73 -130 199q-6 32 -6 64q0 158 114 291q106 125 256 163q53 13 104 13q74 0 136 -26l46 69l61 -32l-47 -70q107 -73 131 -201q6 -31 6 -63zM776 445 q0 121 -82 193q-7 7 -14 12l-392 -583q45 -17 96 -17q136 0 250 101q108 96 135 227q7 34 7 67zM227 100l392 583q-45 17 -96 17q-136 0 -250 -101q-108 -96 -135 -227q-7 -34 -7 -67q0 -124 87 -197q5 -5 9 -8z" glyph-name="Oslash" horiz-adv-x="876" unicode="Ø"/>
<glyph d="M416 975l223 -90l-31 -66l-223 90zM716 750h80l-159 -750h-80l23 111q-89 -116 -236 -129q-18 -2 -34 -2q-115 0 -187 74q-63 66 -63 163q0 37 8 69l98 464h80l-100 -473q-6 -27 -6 -52q0 -99 77 -147q47 -28 108 -28q111 0 202 87q73 71 93 162z" glyph-name="Ugrave" horiz-adv-x="766" unicode="Ù"/>
<glyph d="M643 975l18 -66l-261 -90l-17 66zM716 750h80l-159 -750h-80l23 111q-89 -116 -236 -129q-18 -2 -34 -2q-115 0 -187 74q-63 66 -63 163q0 37 8 69l98 464h80l-100 -473q-6 -27 -6 -52q0 -99 77 -147q47 -28 108 -28q111 0 202 87q73 71 93 162z" glyph-name="Uacute" horiz-adv-x="766" unicode="Ú"/>
<glyph d="M531 968l142 -87l-36 -59l-110 69l-149 -69l-24 62zM716 750h80l-159 -750h-80l23 111q-89 -116 -236 -129q-18 -2 -34 -2q-115 0 -187 74q-63 66 -63 163q0 37 8 69l98 464h80l-100 -473q-6 -27 -6 -52q0 -99 77 -147q47 -28 108 -28q111 0 202 87q73 71 93 162z" glyph-name="Ucircumflex" horiz-adv-x="766" unicode="Û"/>
<glyph d="M716 750h80l-159 -750h-80l23 111q-89 -116 -236 -129q-18 -2 -34 -2q-115 0 -187 74q-63 66 -63 163q0 37 8 69l98 464h80l-100 -473q-6 -27 -6 -52q0 -99 77 -147q47 -28 108 -28q111 0 202 87q73 71 93 162zM605 944h80l-22 -100h-80zM385 944h80l-22 -100h-80z" glyph-name="Udieresis" horiz-adv-x="766" unicode="Ü"/>
<glyph d="M593 975l18 -66l-261 -90l-17 66zM720 750h88l-567 -893q-87 -136 -225 -137q-53 0 -87 16q-4 2 -6 4l15 70q29 -17 80 -19q96 1 156 96l90 143l-184 720h77l162 -634z" glyph-name="Yacute" horiz-adv-x="708" unicode="Ý"/>
<glyph d="M880 447q0 -157 -114 -290q-106 -124 -252 -163q-54 -14 -105 -14q-149 0 -241 103q-33 37 -53 82l-95 -445h-80l282 1330h80l-93 -441q108 125 263 154q38 7 76 7q140 0 237 -95q95 -94 95 -228zM799 445q0 123 -85 196q-69 59 -168 59q-136 0 -251 -101 q-109 -96 -136 -227q-7 -34 -7 -67q0 -123 86 -196q70 -59 169 -59q136 0 250 101q108 96 135 227q7 34 7 67z" glyph-name="Thorn" horiz-adv-x="899" unicode="Þ"/>
<glyph d="M559 593q0 -97 -81 -162q-12 -10 -25 -18l-82 -52q-40 -24 -43 -46q-1 -4 -1 -7q1 -33 31 -44l52 -17q53 -18 77 -66q12 -24 12 -49q0 -87 -74 -130q-41 -24 -89 -24q-83 0 -126 62q-16 24 -23 52l71 26q13 -58 64 -69q9 -2 18 -2q48 0 69 39q9 19 9 40q0 37 -42 53 q-4 1 -6 2l-33 11q-73 24 -86 87q-3 12 -3 24q0 70 75 117q2 2 4 3l82 51q56 35 67 102q1 11 1 20q0 65 -51 91q-20 10 -42 10q-64 0 -108 -53q-25 -30 -34 -69l-122 -575h-80l81 380h-80l15 70h80l30 142q26 122 133 162q40 15 85 15q85 0 136 -61q39 -48 39 -115z" glyph-name="germandbls" horiz-adv-x="574" unicode="ß"/>
<glyph d="M489 450h80l-97 -450h-80l14 62q-69 -76 -169 -81h-12q-97 0 -154 68q-46 56 -46 138q0 126 99 211q85 71 186 71q106 0 160 -77q3 -4 5 -7zM444 263q0 80 -60 117q-32 20 -72 20q-85 0 -149 -71q-57 -63 -57 -139q0 -77 56 -117q34 -23 76 -23q84 0 149 72q57 65 57 141 zM307 785l199 -141l-43 -55l-199 141z" glyph-name="agrave" horiz-adv-x="604" unicode="à"/>
<glyph d="M489 450h80l-97 -450h-80l14 62q-69 -76 -169 -81h-12q-97 0 -154 68q-46 56 -46 138q0 126 99 211q85 71 186 71q106 0 160 -77q3 -4 5 -7zM444 263q0 80 -60 117q-32 20 -72 20q-85 0 -149 -71q-57 -63 -57 -139q0 -77 56 -117q34 -23 76 -23q84 0 149 72q57 65 57 141 zM476 785l41 -60l-223 -136l-41 60z" glyph-name="aacute" horiz-adv-x="604" unicode="á"/>
<glyph d="M489 450h80l-97 -450h-80l14 62q-69 -76 -169 -81h-12q-97 0 -154 68q-46 56 -46 138q0 126 99 211q85 71 186 71q106 0 160 -77q3 -4 5 -7zM444 263q0 80 -60 117q-32 20 -72 20q-85 0 -149 -71q-57 -63 -57 -139q0 -77 56 -117q34 -23 76 -23q84 0 149 72q57 65 57 141 zM413 784l128 -148l-50 -47l-89 103l-137 -103l-42 52z" glyph-name="acircumflex" horiz-adv-x="604" unicode="â"/>
<glyph d="M489 450h80l-97 -450h-80l14 62q-69 -76 -169 -81h-12q-97 0 -154 68q-46 56 -46 138q0 126 99 211q85 71 186 71q106 0 160 -77q3 -4 5 -7zM444 263q0 80 -60 117q-32 20 -72 20q-85 0 -149 -71q-57 -63 -57 -139q0 -77 56 -117q34 -23 76 -23q84 0 149 72q57 65 57 141 zM499 750h58q-13 -61 -65 -88q-24 -13 -50 -13q-48 0 -75 31q-20 22 -32 25q-7 2 -14 2q-32 0 -50 -31q-4 -8 -6 -16h-58q13 61 65 88q25 13 51 13q47 0 73 -30q20 -21 32 -25q8 -2 16 -2q31 0 48 29q5 9 7 17z" glyph-name="atilde" horiz-adv-x="604" unicode="ã"/>
<glyph d="M489 450h80l-97 -450h-80l14 62q-69 -76 -169 -81h-12q-97 0 -154 68q-46 56 -46 138q0 126 99 211q85 71 186 71q106 0 160 -77q3 -4 5 -7zM444 263q0 80 -60 117q-32 20 -72 20q-85 0 -149 -71q-57 -63 -57 -139q0 -77 56 -117q34 -23 76 -23q84 0 149 72q57 65 57 141 zM479 750h80l-22 -100h-80zM259 750h80l-22 -100h-80z" glyph-name="adieresis" horiz-adv-x="604" unicode="ä"/>
<glyph d="M489 450h80l-97 -450h-80l14 62q-69 -76 -169 -81h-12q-97 0 -154 68q-46 56 -46 138q0 126 99 211q85 71 186 71q106 0 160 -77q3 -4 5 -7zM444 263q0 80 -60 117q-32 20 -72 20q-85 0 -149 -71q-57 -63 -57 -139q0 -77 56 -117q34 -23 76 -23q84 0 149 72q57 65 57 141 zM496 677q0 -56 -48 -86q-25 -15 -54 -15q-56 0 -85 47q-16 25 -16 54q0 57 47 87q25 15 54 15q57 0 87 -48q15 -25 15 -54zM441 677q0 31 -28 43q-10 4 -19 4q-30 0 -42 -28q-4 -10 -4 -19q0 -30 28 -42q9 -4 18 -4q31 0 43 28q4 9 4 18z" glyph-name="aring" horiz-adv-x="604" unicode="å"/>
<glyph d="M937 262q0 -34 -10 -72h-409v-2q0 -78 58 -116q33 -22 74 -22q92 1 166 90l63 -42q-69 -89 -176 -112q-30 -6 -58 -6q-105 1 -158 86l-15 -66h-80l14 62q-69 -76 -169 -81h-12q-97 0 -154 68q-46 56 -46 138q0 126 99 211q85 71 186 71q106 0 160 -77q3 -4 5 -7l14 65h80 l-9 -41q76 61 170 61q99 0 160 -75q47 -58 47 -133zM860 262q0 75 -58 115q-35 23 -78 23q-85 0 -149 -72q-28 -32 -43 -69h328v3zM444 263q0 80 -60 117q-32 20 -72 20q-85 0 -149 -71q-57 -63 -57 -139q0 -77 56 -117q34 -23 76 -23q84 0 149 72q57 65 57 141z" glyph-name="ae" horiz-adv-x="992" unicode="æ"/>
<glyph d="M276 -133q0 -54 -44 -82q-25 -16 -58 -16q-52 0 -78 44q-7 12 -10 24l51 26q15 -37 36 -38q32 0 41 30q2 7 2 13q-2 27 -28 28q-11 -1 -26 -15l-5 -5l-41 38l118 120l42 -39l-49 -48q48 -26 49 -80zM509 345l-68 -35q-43 89 -129 90q-84 0 -148 -70q-58 -65 -58 -142 q0 -78 58 -116q33 -22 74 -22q92 1 166 90l63 -42q-69 -89 -176 -112q-30 -6 -58 -6q-99 0 -161 75q-47 58 -47 132q0 115 89 199q91 82 204 84q99 0 160 -74q19 -24 31 -51z" glyph-name="ccedilla" horiz-adv-x="538" unicode="ç"/>
<glyph d="M525 262q0 -34 -10 -72h-409v-2q0 -78 58 -116q33 -22 74 -22q92 1 166 90l63 -42q-69 -89 -176 -112q-30 -6 -58 -6q-99 0 -161 75q-47 58 -47 132q0 115 89 199q91 82 204 84q99 0 160 -75q47 -58 47 -133zM448 262q0 75 -58 115q-35 23 -78 23q-85 0 -149 -72 q-28 -32 -43 -69h328v3zM287 785l199 -141l-43 -55l-199 141z" glyph-name="egrave" unicode="è"/>
<glyph d="M525 262q0 -34 -10 -72h-409v-2q0 -78 58 -116q33 -22 74 -22q92 1 166 90l63 -42q-69 -89 -176 -112q-30 -6 -58 -6q-99 0 -161 75q-47 58 -47 132q0 115 89 199q91 82 204 84q99 0 160 -75q47 -58 47 -133zM448 262q0 75 -58 115q-35 23 -78 23q-85 0 -149 -72 q-28 -32 -43 -69h328v3zM446 785l41 -60l-223 -136l-41 60z" glyph-name="eacute" unicode="é"/>
<glyph d="M525 262q0 -34 -10 -72h-409v-2q0 -78 58 -116q33 -22 74 -22q92 1 166 90l63 -42q-69 -89 -176 -112q-30 -6 -58 -6q-99 0 -161 75q-47 58 -47 132q0 115 89 199q91 82 204 84q99 0 160 -75q47 -58 47 -133zM448 262q0 75 -58 115q-35 23 -78 23q-85 0 -149 -72 q-28 -32 -43 -69h328v3zM393 784l128 -148l-50 -47l-89 103l-137 -103l-42 52z" glyph-name="ecircumflex" unicode="ê"/>
<glyph d="M525 262q0 -34 -10 -72h-409v-2q0 -78 58 -116q33 -22 74 -22q92 1 166 90l63 -42q-69 -89 -176 -112q-30 -6 -58 -6q-99 0 -161 75q-47 58 -47 132q0 115 89 199q91 82 204 84q99 0 160 -75q47 -58 47 -133zM448 262q0 75 -58 115q-35 23 -78 23q-85 0 -149 -72 q-28 -32 -43 -69h328v3zM449 750h80l-22 -100h-80zM229 750h80l-22 -100h-80z" glyph-name="edieresis" unicode="ë"/>
<glyph d="M96 450h80l-96 -450h-80zM107 785l199 -141l-43 -55l-199 141z" glyph-name="igrave" horiz-adv-x="209" unicode="ì"/>
<glyph d="M96 450h80l-96 -450h-80zM266 785l41 -60l-223 -136l-41 60z" glyph-name="iacute" horiz-adv-x="209" unicode="í"/>
<glyph d="M96 450h80l-96 -450h-80zM203 784l128 -148l-50 -47l-89 103l-137 -103l-42 52z" glyph-name="icircumflex" horiz-adv-x="209" unicode="î"/>
<glyph d="M96 450h80l-96 -450h-80zM265 750h80l-22 -100h-80zM45 750h80l-22 -100h-80z" glyph-name="idieresis" horiz-adv-x="209" unicode="ï"/>
<glyph d="M195 572l341 174l-18 -83l-341 -174zM525 262q0 -113 -88 -197q-92 -83 -204 -85q-99 0 -161 75q-47 58 -47 132q0 115 89 199q91 82 204 84q32 0 66 -10l-105 290h80l153 -414q13 -38 13 -74zM444 262q0 78 -58 116q-33 22 -74 22q-84 0 -148 -70q-58 -65 -58 -142 q0 -78 58 -116q33 -22 74 -22q85 0 149 72q57 64 57 140z" glyph-name="eth" unicode="ð"/>
<glyph d="M473 315q0 -13 -4 -38l-59 -277h-80l61 285q2 10 2 26q0 61 -54 82q-20 8 -44 8q-69 0 -120 -57q-28 -34 -37 -72l-58 -272h-80l96 450h80l-12 -54q48 69 136 74h10q83 0 130 -57q33 -41 33 -98zM459 750h58q-13 -61 -65 -88q-24 -13 -50 -13q-48 0 -75 31q-20 22 -32 25 q-7 2 -14 2q-32 0 -50 -31q-4 -8 -6 -16h-58q13 61 65 88q25 13 51 13q47 0 73 -30q20 -21 32 -25q8 -2 16 -2q31 0 48 29q5 9 7 17z" glyph-name="ntilde" horiz-adv-x="537" unicode="ñ"/>
<glyph d="M525 262q0 -113 -88 -197q-92 -83 -204 -85q-99 0 -161 75q-47 58 -47 132q0 115 89 199q91 82 204 84q99 0 160 -75q47 -58 47 -133zM444 262q0 78 -58 116q-33 22 -74 22q-84 0 -148 -70q-58 -65 -58 -142q0 -78 58 -116q33 -22 74 -22q85 0 149 72q57 64 57 140z M287 785l199 -141l-43 -55l-199 141z" glyph-name="ograve" unicode="ò"/>
<glyph d="M525 262q0 -113 -88 -197q-92 -83 -204 -85q-99 0 -161 75q-47 58 -47 132q0 115 89 199q91 82 204 84q99 0 160 -75q47 -58 47 -133zM444 262q0 78 -58 116q-33 22 -74 22q-84 0 -148 -70q-58 -65 -58 -142q0 -78 58 -116q33 -22 74 -22q85 0 149 72q57 64 57 140z M446 785l41 -60l-223 -136l-41 60z" glyph-name="oacute" unicode="ó"/>
<glyph d="M525 262q0 -113 -88 -197q-92 -83 -204 -85q-99 0 -161 75q-47 58 -47 132q0 115 89 199q91 82 204 84q99 0 160 -75q47 -58 47 -133zM444 262q0 78 -58 116q-33 22 -74 22q-84 0 -148 -70q-58 -65 -58 -142q0 -78 58 -116q33 -22 74 -22q85 0 149 72q57 64 57 140z M393 784l128 -148l-50 -47l-89 103l-137 -103l-42 52z" glyph-name="ocircumflex" unicode="ô"/>
<glyph d="M525 262q0 -113 -88 -197q-92 -83 -204 -85q-99 0 -161 75q-47 58 -47 132q0 115 89 199q91 82 204 84q99 0 160 -75q47 -58 47 -133zM444 262q0 78 -58 116q-33 22 -74 22q-84 0 -148 -70q-58 -65 -58 -142q0 -78 58 -116q33 -22 74 -22q85 0 149 72q57 64 57 140z M489 750h58q-13 -61 -65 -88q-24 -13 -50 -13q-48 0 -75 31q-20 22 -32 25q-7 2 -14 2q-32 0 -50 -31q-4 -8 -6 -16h-58q13 61 65 88q25 13 51 13q47 0 73 -30q20 -21 32 -25q8 -2 16 -2q31 0 48 29q5 9 7 17z" glyph-name="otilde" unicode="õ"/>
<glyph d="M525 262q0 -113 -88 -197q-92 -83 -204 -85q-99 0 -161 75q-47 58 -47 132q0 115 89 199q91 82 204 84q99 0 160 -75q47 -58 47 -133zM444 262q0 78 -58 116q-33 22 -74 22q-84 0 -148 -70q-58 -65 -58 -142q0 -78 58 -116q33 -22 74 -22q85 0 149 72q57 64 57 140z M449 750h80l-22 -100h-80zM229 750h80l-22 -100h-80z" glyph-name="odieresis" unicode="ö"/>
<glyph d="M336 650h80l-25 -120h-80zM45 410h560l-15 -70h-560zM244 220h80l-25 -120h-80z" glyph-name="divide" horiz-adv-x="634" unicode="÷"/>
<glyph d="M525 262q0 -113 -88 -197q-92 -83 -204 -85q-42 0 -73 13l-44 -65l-63 31l46 69q-73 62 -74 159q0 115 89 199q91 82 204 84q39 0 72 -12l43 64l63 -31l-45 -68q69 -57 74 -150v-11zM444 262q-1 59 -36 98l-206 -305q19 -5 36 -5q85 0 149 72q57 64 57 140zM142 91 l206 305q-22 4 -36 4q-84 0 -148 -70q-58 -65 -58 -142q1 -59 36 -97z" glyph-name="oslash" unicode="ø"/>
<glyph d="M423 450h80l-96 -450h-80l12 55q-57 -71 -147 -75q-81 0 -128 57q-34 41 -34 98q0 21 4 38l59 277h80l-61 -285q-3 -14 -3 -26q0 -60 53 -82q21 -8 45 -8q70 0 121 58q28 33 37 71zM267 785l199 -141l-43 -55l-199 141z" glyph-name="ugrave" horiz-adv-x="537" unicode="ù"/>
<glyph d="M423 450h80l-96 -450h-80l12 55q-57 -71 -147 -75q-81 0 -128 57q-34 41 -34 98q0 21 4 38l59 277h80l-61 -285q-3 -14 -3 -26q0 -60 53 -82q21 -8 45 -8q70 0 121 58q28 33 37 71zM436 785l41 -60l-223 -136l-41 60z" glyph-name="uacute" horiz-adv-x="537" unicode="ú"/>
<glyph d="M423 450h80l-96 -450h-80l12 55q-57 -71 -147 -75q-81 0 -128 57q-34 41 -34 98q0 21 4 38l59 277h80l-61 -285q-3 -14 -3 -26q0 -60 53 -82q21 -8 45 -8q70 0 121 58q28 33 37 71zM383 784l128 -148l-50 -47l-89 103l-137 -103l-42 52z" glyph-name="ucircumflex" horiz-adv-x="537" unicode="û"/>
<glyph d="M423 450h80l-96 -450h-80l12 55q-57 -71 -147 -75q-81 0 -128 57q-34 41 -34 98q0 21 4 38l59 277h80l-61 -285q-3 -14 -3 -26q0 -60 53 -82q21 -8 45 -8q70 0 121 58q28 33 37 71zM439 750h80l-22 -100h-80zM219 750h80l-22 -100h-80z" glyph-name="udieresis" horiz-adv-x="537" unicode="ü"/>
<glyph d="M405 450h85l-413 -647q-55 -82 -145 -83q-39 0 -82 18l15 69q28 -18 63 -18q57 1 87 47l99 156l-98 458h76l77 -372zM416 785l41 -60l-223 -136l-41 60z" glyph-name="yacute" horiz-adv-x="449" unicode="ý"/>
<glyph d="M556 262q0 -126 -99 -210q-85 -71 -186 -71q-104 0 -157 72q-4 6 -7 11l-72 -334h-80l217 1020h80l-77 -363q69 77 170 82h11q99 0 156 -70q44 -55 44 -137zM475 260q0 77 -56 117q-34 23 -76 23q-83 0 -148 -71q-58 -66 -58 -143q0 -79 59 -116q33 -20 73 -20 q85 0 149 71q57 63 57 139z" glyph-name="thorn" horiz-adv-x="611" unicode="þ"/>
</font>
</defs>
</svg>
