<?xml version="1.0" encoding="UTF-8"?>
<!DOCTYPE svg  PUBLIC '-//W3C//DTD SVG 1.1//EN'  'http://www.w3.org/Graphics/SVG/1.1/DTD/svg11.dtd'>
<svg version="1.1" xmlns="http://www.w3.org/2000/svg">
<defs>
<font id="AnoBold-Regular" horiz-adv-x="1208">
<font-face font-family="Ano Bold" font-weight="400" ascent="1638" bbox="-104 -573 2042 2025" cap-height="1536" descent="-410" panose-1="0 0 0 0 0 0 0 0 0 0" underline-position="-271" underline-thickness="40" unicode-range="U+0020-00FE" units-per-em="2048" x-height="922"/>
<missing-glyph/>
<glyph glyph-name="space" horiz-adv-x="409" unicode=" "/>
<glyph d="M176 0v352h246v-352h-246zM176 526v1010h246v-1010h-246z" glyph-name="exclam" horiz-adv-x="598" unicode="!"/>
<glyph d="M143 1024v512h246v-512h-246zM553 1024v512h246v-512h-246z" glyph-name="quotedbl" horiz-adv-x="942" unicode='"'/>
<glyph d="M82 467l45 213h242l37 176h-240l45 213h240l98 467h246l-99 -467h154l98 467h246l-98 -467h254l-47 -213h-252l-37 -176h252l-45 -213h-254l-99 -467h-245l98 467h-154l-98 -467h-246l99 467h-240zM614 680h154l37 176h-154z" glyph-name="numbersign" horiz-adv-x="1429" unicode="#"/>
<glyph d="M123 348l203 84q50 -132 137 -197t188 -65q118 0 206.5 77.5t88.5 190.5q0 71 -49 125.5t-147 79.5l-242 64q-163 43 -252.5 158t-89.5 259q0 177 107.5 293.5t269.5 149.5v256h245v-260q138 -33 241.5 -129.5t141.5 -249.5l-198 -78q-36 126 -125.5 192t-192.5 66 q-104 0 -178 -63t-74 -171q0 -72 43.5 -128.5t124.5 -77.5l269 -70q167 -43 256.5 -154.5t89.5 -253.5q0 -180 -113.5 -306.5t-284.5 -166.5v-260h-245v256q-137 28 -248.5 123t-171.5 256z" glyph-name="dollar" horiz-adv-x="1306" unicode="$"/>
<glyph d="M82 1180q0 164 115.5 279.5t279.5 115.5q163 0 279 -115.5t116 -279.5q0 -163 -116 -279.5t-279 -116.5q-164 0 -279.5 116.5t-115.5 279.5zM276 1180q0 -84 59.5 -147.5t141.5 -63.5t141.5 63.5t59.5 147.5t-59.5 147.5t-141.5 63.5t-141.5 -63.5t-59.5 -147.5zM391 66 l873 1511l188 -107l-872 -1511zM977 354q0 164 115.5 280t279.5 116q163 0 279 -116t116 -280q0 -163 -116 -279t-279 -116q-164 0 -279.5 116t-115.5 279zM1171 354q0 -84 59.5 -147.5t141.5 -63.5t141.5 63.5t59.5 147.5t-59.5 147.5t-141.5 63.5t-141.5 -63.5 t-59.5 -147.5z" glyph-name="percent" horiz-adv-x="1847" unicode="%"/>
<glyph d="M61 418q0 117 59.5 217t162.5 162q-88 59 -137.5 149.5t-49.5 196.5q0 119 62.5 219t169 157.5t231.5 57.5q168 0 295 -102t164 -269l-199 -82q-33 121 -103.5 179.5t-156.5 58.5q-93 0 -159 -68t-66 -166q0 -96 66 -163.5t159 -67.5h62v-215h-62q-108 0 -184 -73.5 t-76 -178.5q0 -106 76.5 -181t183.5 -75q109 0 185.5 75t76.5 181v53h-112v215h462v-215h-112v-65q0 -191 -147 -325t-353 -134q-134 0 -248.5 61t-182 166.5t-67.5 231.5z" glyph-name="ampersand" horiz-adv-x="1232" unicode="&amp;"/>
<glyph d="M143 1024v512h246v-512h-246z" glyph-name="quotesingle" horiz-adv-x="532" unicode="'"/>
<glyph d="M102 768q0 125 20.5 244.5t65.5 231.5t110 199t160 146t210 74l80 -190q-97 -18 -174.5 -83.5t-126 -162t-74 -214t-25.5 -245.5t25.5 -245.5t74 -214t126 -162t174.5 -83.5l-80 -190q-115 15 -210 74t-160 146t-110 199t-65.5 231.5t-20.5 244.5z" glyph-name="parenleft" horiz-adv-x="847" unicode="("/>
<glyph d="M102 63q97 18 174.5 83.5t126 162t74 214t25.5 245.5t-25.5 245.5t-74 214t-126 162t-174.5 83.5l80 190q115 -15 210 -74t160 -146t110 -199t65.5 -231.5t20.5 -244.5t-20.5 -244.5t-65.5 -231.5t-110 -199t-160 -146t-210 -74z" glyph-name="parenright" horiz-adv-x="847" unicode=")"/>
<glyph d="M41 1085l76 234l297 -102v319h245v-319l297 102l76 -234l-307 -94l195 -256l-199 -145l-184 264l-185 -264l-198 145l194 258z" glyph-name="asterisk" horiz-adv-x="1073" unicode="*"/>
<glyph d="M82 659v215h440v457h246v-457h440v-215h-440v-454h-246v454h-440z" glyph-name="plus" horiz-adv-x="1290" unicode="+"/>
<glyph d="M0 -184l432 596l209 -142l-432 -596z" glyph-name="comma" horiz-adv-x="641" unicode=","/>
<glyph d="M82 455v215h645v-215h-645z" glyph-name="hyphen" horiz-adv-x="808" unicode="-"/>
<glyph d="M143 0v352h246v-352h-246z" glyph-name="period" horiz-adv-x="532" unicode="."/>
<glyph d="M0 -51l809 1732l223 -104l-809 -1733z" glyph-name="slash" horiz-adv-x="1030" unicode="/"/>
<glyph d="M102 461v614q0 136 67.5 251.5t183 183t251.5 67.5t251.5 -67.5t183 -183t67.5 -251.5v-614q0 -136 -67.5 -251.5t-183 -183t-251.5 -67.5t-251.5 67.5t-183 183t-67.5 251.5zM348 461q0 -119 75 -203t181 -84t181 84t75 203v614q0 119 -75 203t-181 84t-181 -84 t-75 -203v-614z" glyph-name="zero" unicode="0"/>
<glyph d="M133 1065l434 471h246v-1536h-246v1196l-278 -281z" glyph-name="one" horiz-adv-x="946" unicode="1"/>
<glyph d="M92 1194q18 94 64.5 168.5t111.5 120.5t140.5 70t156.5 24q91 0 174.5 -29.5t151 -85t107.5 -143t40 -195.5q0 -183 -127 -331l-493 -578h598v-215h-922v215l621 725q76 85 76 201q0 105 -64 164t-156 59q-96 0 -176.5 -65.5t-105.5 -184.5z" glyph-name="two" horiz-adv-x="1128" unicode="2"/>
<glyph d="M92 336l209 84q32 -124 107 -185t172 -61q109 0 185.5 75t76.5 181q0 105 -76.5 178.5t-185.5 73.5h-224v215h224q94 0 160.5 67.5t66.5 163.5q0 98 -66.5 166t-160.5 68q-86 0 -155.5 -58.5t-102.5 -179.5l-199 82q37 166 163.5 268.5t293.5 102.5q125 0 232 -57.5 t169.5 -157.5t62.5 -219q0 -106 -50 -196t-138 -150q103 -63 163 -162.5t60 -216.5q0 -126 -67.5 -231.5t-182.5 -166.5t-249 -61q-176 0 -311.5 104t-176.5 273z" glyph-name="three" horiz-adv-x="1169" unicode="3"/>
<glyph d="M82 287v188l655 1061h246v-1034h207v-215h-207v-287h-246v287h-655zM346 502h391v635z" glyph-name="four" horiz-adv-x="1269" unicode="4"/>
<glyph d="M92 350l199 82q39 -128 121.5 -193t179.5 -65q118 0 204.5 84t86.5 217q0 126 -84 213.5t-203 87.5q-108 0 -180.5 -18.5t-214.5 -73.5l73 852h748v-215h-535l-30 -342q65 12 139 12q106 0 203 -41t167 -110t111 -164.5t41 -200.5q0 -116 -44.5 -214.5t-118.5 -163 t-167.5 -100.5t-193.5 -36q-165 0 -302 98t-200 291z" glyph-name="five" horiz-adv-x="1210" unicode="5"/>
<glyph d="M102 475q0 141 70 256l469 805h274l-319 -545h29q106 0 203 -41t167 -110t111 -164.5t41 -200.5t-41 -200.5t-111 -164.5t-167 -110t-203 -41q-142 0 -262.5 69t-190.5 188t-70 259zM338 475q0 -125 84.5 -213t202.5 -88t202 88t84 213t-84 213t-202 88t-202.5 -88 t-84.5 -213z" glyph-name="six" horiz-adv-x="1249" unicode="6"/>
<glyph d="M61 0l641 1321h-639v215h895v-215l-641 -1321h-256z" glyph-name="seven" horiz-adv-x="1017" unicode="7"/>
<glyph d="M102 418q0 116 59 216t158 163q-85 60 -133.5 150.5t-48.5 195.5q0 119 63 219t170 157.5t232 57.5q124 0 230.5 -57.5t169.5 -157.5t63 -219q0 -105 -48.5 -195.5t-133.5 -150.5q99 -63 158 -163t59 -216q0 -126 -68 -232t-182.5 -166.5t-247.5 -60.5q-134 0 -249 60.5 t-183 166.5t-68 232zM338 430q0 -106 77 -181t187 -75q109 0 185.5 75t76.5 181q0 105 -77 180.5t-185 75.5q-110 0 -187 -75.5t-77 -180.5zM375 1128q0 -95 66.5 -163t160.5 -68q92 0 158.5 68t66.5 163q0 97 -66.5 165.5t-158.5 68.5q-94 0 -160.5 -68.5t-66.5 -165.5z " glyph-name="eight" horiz-adv-x="1202" unicode="8"/>
<glyph d="M102 1083q0 134 67.5 247.5t183 180t251.5 66.5t251.5 -66.5t183 -180t67.5 -247.5t-66 -245l-491 -838h-277l346 590h-20q-205 0 -350.5 144.5t-145.5 348.5zM340 1083q0 -116 78 -196t186 -80q109 0 186.5 80t77.5 196q0 115 -77.5 196t-186.5 81q-108 0 -186 -81 t-78 -196z" glyph-name="nine" unicode="9"/>
<glyph d="M143 0v352h246v-352h-246zM143 569v353h246v-353h-246z" glyph-name="colon" horiz-adv-x="532" unicode=":"/>
<glyph d="M0 -184l432 596l209 -142l-432 -596zM307 569v353h246v-353h-246z" glyph-name="semicolon" horiz-adv-x="641" unicode=";"/>
<glyph d="M72 756l630 630l152 -151l-477 -479l477 -477l-152 -152z" glyph-name="less" horiz-adv-x="923" unicode="&lt;"/>
<glyph d="M82 455v215h1126v-215h-1126zM82 864v215h1126v-215h-1126z" glyph-name="equal" horiz-adv-x="1290" unicode="="/>
<glyph d="M72 279l477 477l-477 479l151 151l631 -630l-631 -629z" glyph-name="greater" horiz-adv-x="923" unicode="&gt;"/>
<glyph d="M100 1184q25 98 79.5 175t127 123.5t155.5 70.5t171 24q123 0 223.5 -39.5t163 -105t96 -146t33.5 -166.5q0 -145 -90.5 -260t-259.5 -153q-87 -19 -136 -68t-57 -113h-241q14 317 376 398q80 18 124 75.5t44 128.5q0 96 -72 166t-202 70q-111 0 -205.5 -66t-130.5 -192z M360 0v352h246v-352h-246z" glyph-name="question" horiz-adv-x="1251" unicode="?"/>
<glyph d="M102 768q0 164 64 314t172.5 258.5t258.5 172.5t314 64t314 -64t258.5 -172.5t172.5 -258.5t64 -314q0 -59 -9.5 -117.5t-32.5 -117.5t-57 -104.5t-87.5 -75t-120.5 -31.5l98 -99q-264 -264 -600 -264q-164 0 -314 64t-258.5 172.5t-172.5 258.5t-64 314zM336 768 q0 -122 45.5 -232t122.5 -189t183.5 -126t223.5 -47q217 0 396 164q-95 33 -146 111q-113 -125 -282 -125q-88 0 -168.5 35.5t-139.5 95t-94 141.5t-35 172t35 172t94 141.5t139.5 95t168.5 35.5q124 0 227 -73v43h219q-80 85 -186 132.5t-228 47.5q-117 0 -223.5 -47 t-183.5 -126t-122.5 -189t-45.5 -232zM676 768q0 -96 64 -163.5t151 -67.5t151 68t64 163t-64 163t-151 68t-151 -67.5t-64 -163.5zM1339 623q0 -32 19.5 -58t44.5 -26q35 0 59.5 54.5t24.5 174.5q0 226 -148 397v-542z" glyph-name="at" horiz-adv-x="1822" unicode="@"/>
<glyph d="M0 0l608 1536h252l608 -1536h-266l-153 397h-631l-154 -397h-264zM500 610h467l-234 602z" glyph-name="A" horiz-adv-x="1468" unicode="A"/>
<glyph d="M143 0v1536h582q180 0 307 -125t127 -303q0 -191 -174 -322q101 -58 157 -150.5t56 -207.5q0 -178 -127 -303t-307 -125h-621zM389 215h356q90 0 148.5 63.5t58.5 159.5t-58.5 158.5t-148.5 62.5h-356v-444zM389 874h316q91 0 148.5 64t57.5 160t-57.5 159.5t-148.5 63.5 h-316v-447z" glyph-name="B" horiz-adv-x="1308" unicode="B"/>
<glyph d="M92 768q0 164 64 314t172.5 258.5t258.5 172.5t314 64q250 0 453 -138.5t295 -361.5l-222 -92q-62 168 -205 272.5t-319 104.5q-153 0 -282.5 -79.5t-205 -216.5t-75.5 -298t75.5 -298t205 -216.5t282.5 -79.5q176 0 319 104.5t205 272.5l222 -92q-92 -223 -295 -361.5 t-453 -138.5q-164 0 -314 64t-258.5 172.5t-172.5 258.5t-64 314z" glyph-name="C" horiz-adv-x="1740" unicode="C"/>
<glyph d="M143 0v1536h543q209 0 385.5 -103t279.5 -279.5t103 -385.5t-103 -385.5t-279.5 -279.5t-385.5 -103h-543zM389 215h266q112 0 214.5 44t176.5 118t118 176.5t44 214.5t-44 214.5t-118 176.5t-176.5 118t-214.5 44h-266v-1106z" glyph-name="D" horiz-adv-x="1576" unicode="D"/>
<glyph d="M143 0v1536h891v-215h-645v-447h586v-215h-586v-444h645v-215h-891z" glyph-name="E" horiz-adv-x="1157" unicode="E"/>
<glyph d="M143 0v1536h891v-215h-645v-447h586v-215h-586v-659h-246z" glyph-name="F" horiz-adv-x="1157" unicode="F"/>
<glyph d="M102 768q0 164 64 314t172.5 258.5t258.5 172.5t314 64t313 -63t261 -175l-164 -161q-78 87 -183.5 135.5t-224.5 48.5q-153 0 -282.5 -79.5t-205 -216.5t-75.5 -298t75.5 -298t205 -216.5t282.5 -79.5q205 0 361.5 138t193.5 347h-557v215h801q8 -47 8 -106 q0 -164 -64 -314t-172.5 -258.5t-258.5 -172.5t-314 -64t-314 64t-258.5 172.5t-172.5 258.5t-64 314z" glyph-name="G" horiz-adv-x="1822" unicode="G"/>
<glyph d="M143 0v1536h246v-662h676v662h246v-1536h-246v659h-676v-659h-246z" glyph-name="H" horiz-adv-x="1454" unicode="H"/>
<glyph d="M143 0v1536h246v-1536h-246z" glyph-name="I" horiz-adv-x="532" unicode="I"/>
<glyph d="M96 371l199 80q55 -277 274 -277q97 0 167.5 74.5t70.5 179.5v1108h246v-1108q0 -127 -66.5 -235.5t-178 -171t-239.5 -62.5q-182 0 -314 111t-159 301z" glyph-name="J" horiz-adv-x="1196" unicode="J"/>
<glyph d="M143 0v1536h246v-618l533 618h321l-663 -770l659 -766h-321l-529 614v-614h-246z" glyph-name="K" horiz-adv-x="1312" unicode="K"/>
<glyph d="M143 0v1536h246v-1321h686v-215h-932z" glyph-name="L" horiz-adv-x="1187" unicode="L"/>
<glyph d="M143 0v1536h246l481 -750l486 750h241v-1536h-245v1079l-381 -594h-201l-381 594v-1079h-246z" glyph-name="M" horiz-adv-x="1740" unicode="M"/>
<glyph d="M143 0v1536h246l707 -1108v1108h245v-1536h-245l-707 1106v-1106h-246z" glyph-name="N" horiz-adv-x="1484" unicode="N"/>
<glyph d="M102 768q0 164 64 314t172.5 258.5t258.5 172.5t314 64t314 -64t258.5 -172.5t172.5 -258.5t64 -314t-64 -314t-172.5 -258.5t-258.5 -172.5t-314 -64t-314 64t-258.5 172.5t-172.5 258.5t-64 314zM350 768q0 -161 75.5 -298t205 -216.5t282.5 -79.5t283 79.5 t205.5 216.5t75.5 298t-75.5 298t-205.5 216.5t-283 79.5t-282.5 -79.5t-205 -216.5t-75.5 -298z" glyph-name="O" horiz-adv-x="1822" unicode="O"/>
<glyph d="M143 0v1536h578q181 0 309.5 -128t128.5 -310t-128.5 -310.5t-309.5 -128.5h-332v-659h-246zM389 874h322q90 0 146 64.5t56 159.5t-56 159t-146 64h-322v-447z" glyph-name="P" horiz-adv-x="1261" unicode="P"/>
<glyph d="M102 768q0 164 64 314t172.5 258.5t258.5 172.5t314 64t314 -64t258.5 -172.5t172.5 -258.5t64 -314q0 -152 -53 -290t-149 -245l202 -233h-303l-74 84q-195 -125 -432 -125q-164 0 -314 64t-258.5 172.5t-172.5 258.5t-64 314zM350 768q0 -161 75.5 -298t205 -216.5 t282.5 -79.5t285 80l-311 360h301l176 -202q113 154 113 356q0 161 -75.5 298t-205.5 216.5t-283 79.5t-282.5 -79.5t-205 -216.5t-75.5 -298z" glyph-name="Q" horiz-adv-x="1822" unicode="Q"/>
<glyph d="M143 0v1536h578q181 0 309.5 -128t128.5 -310t-128.5 -310.5t-309.5 -128.5h-31l592 -659h-311l-582 649v-649h-246zM389 874h322q90 0 146 64.5t56 159.5t-56 159t-146 64h-322v-447z" glyph-name="R" horiz-adv-x="1331" unicode="R"/>
<glyph d="M102 346l207 86q27 -86 85.5 -146.5t127 -87t142.5 -26.5q126 0 217.5 71t91.5 189q0 74 -50.5 132t-148.5 79l-272 62q-164 37 -258 155t-94 262q0 108 43 196t115 143.5t162.5 85.5t188.5 30q119 0 226.5 -41.5t192.5 -132.5t118 -219l-199 -78q-36 126 -131.5 192 t-208.5 66q-112 0 -191 -63.5t-79 -172.5q0 -71 44 -128.5t124 -75.5l309 -70q114 -25 193.5 -88.5t116 -145.5t36.5 -176q0 -91 -35.5 -176.5t-101.5 -155t-170.5 -111.5t-230.5 -42q-118 0 -228 39.5t-204 129.5t-138 218z" glyph-name="S" horiz-adv-x="1312" unicode="S"/>
<glyph d="M41 1321v215h1151v-215h-453v-1321h-245v1321h-453z" glyph-name="T" horiz-adv-x="1232" unicode="T"/>
<glyph d="M143 563v973h246v-973q0 -162 114.5 -275.5t274.5 -113.5t274.5 113.5t114.5 275.5v973h246v-973q0 -123 -50.5 -235t-135.5 -192.5t-202.5 -128.5t-246.5 -48t-246.5 48t-202.5 128.5t-135.5 192.5t-50.5 235z" glyph-name="U" horiz-adv-x="1556" unicode="U"/>
<glyph d="M0 1536h264l477 -1217l478 1217h266l-617 -1536h-252z" glyph-name="V" horiz-adv-x="1484" unicode="V"/>
<glyph d="M0 1536h262l316 -1110l321 1110h242l321 -1112l318 1112h262l-457 -1536h-244l-321 1116l-322 -1116h-243z" glyph-name="W" horiz-adv-x="2041" unicode="W"/>
<glyph d="M0 0l596 768l-596 768h295l448 -578l451 578h295l-596 -768l596 -768h-295l-451 578l-448 -578h-295z" glyph-name="X" horiz-adv-x="1488" unicode="X"/>
<glyph d="M0 1536h295l438 -575l441 575h294l-612 -801v-735h-246v737z" glyph-name="Y" horiz-adv-x="1468" unicode="Y"/>
<glyph d="M82 0v215l805 1106h-805v215h1128v-215l-804 -1106h804v-215h-1128z" glyph-name="Z" horiz-adv-x="1292" unicode="Z"/>
<glyph d="M123 -246v1782h522v-215h-276v-1352h276v-215h-522z" glyph-name="bracketleft" horiz-adv-x="768" unicode="["/>
<glyph d="M0 1577l223 104l809 -1732l-223 -105z" glyph-name="backslash" horiz-adv-x="1030" unicode="\"/>
<glyph d="M123 -31h276v1352h-276v215h522v-1782h-522v215z" glyph-name="bracketright" horiz-adv-x="768" unicode="]"/>
<glyph d="M41 -123h850v-215h-850v215z" glyph-name="underscore" horiz-adv-x="931" unicode="_"/>
<glyph d="M291 1470l106 168l521 -295l-107 -167z" glyph-name="grave" unicode="`"/>
<glyph d="M102 461q0 114 43.5 210.5t114 158.5t158.5 96.5t180 34.5q147 0 262 -89v50h246v-922h-246v49q-113 -88 -262 -88q-92 0 -180 34.5t-158.5 96.5t-114 158.5t-43.5 210.5zM348 461q0 -119 75 -203t181 -84t181 84t75 203t-75 203t-181 84t-181 -84t-75 -203z" glyph-name="a" horiz-adv-x="1249" unicode="a"/>
<glyph d="M143 0v1536h246v-664q115 89 262 89q92 0 180 -34.5t158.5 -96.5t114 -158.5t43.5 -210.5t-43.5 -210.5t-114 -158.5t-158.5 -96.5t-180 -34.5q-149 0 -262 88v-49h-246zM389 461q0 -119 75 -203t181 -84t181 84t75 203t-75 203t-181 84t-181 -84t-75 -203z" glyph-name="b" horiz-adv-x="1249" unicode="b"/>
<glyph d="M92 461q0 136 67.5 251.5t183 183t251.5 67.5q138 0 253.5 -68t180.5 -184l-207 -119q-33 71 -93.5 113.5t-133.5 42.5q-106 0 -181 -84t-75 -203t75 -203t181 -84q72 0 133 43t94 113l207 -121q-66 -114 -181.5 -182t-252.5 -68q-136 0 -251.5 67.5t-183 183 t-67.5 251.5z" glyph-name="c" horiz-adv-x="1120" unicode="c"/>
<glyph d="M123 461q0 114 43 210.5t114 158.5t158.5 96.5t179.5 34.5q148 0 263 -89v664h245v-1536h-245v49q-113 -88 -263 -88q-92 0 -179.5 34.5t-158.5 96.5t-114 158.5t-43 210.5zM369 461q0 -119 75 -203t181 -84t181 84t75 203t-75 203t-181 84t-181 -84t-75 -203z" glyph-name="d" horiz-adv-x="1269" unicode="d"/>
<glyph d="M102 461q0 136 67.5 251.5t183 183t251.5 67.5t251.5 -67.5t183 -183t67.5 -251.5q0 -50 -10 -105h-729q28 -81 92.5 -131.5t144.5 -50.5q74 0 135 43t92 115l207 -123q-66 -114 -181.5 -182t-252.5 -68q-136 0 -251.5 67.5t-183 183t-67.5 251.5zM369 571h471 q-30 78 -94 127.5t-142 49.5t-141.5 -49t-93.5 -128z" glyph-name="e" unicode="e"/>
<glyph d="M61 707v215h154v372q0 121 87 202t216 81q65 0 133 -18v-218q-69 19 -100 19q-90 0 -90 -80v-358h190v-215h-190v-707h-246v707h-154z" glyph-name="f" horiz-adv-x="712" unicode="f"/>
<glyph d="M123 461q0 114 43 210.5t114 158.5t158.5 96.5t179.5 34.5q148 0 263 -89v50h245v-1014q0 -135 -67.5 -246t-182 -173t-251.5 -62q-138 0 -254 67.5t-181 181.5l207 121q33 -70 94.5 -112.5t133.5 -42.5q108 0 182 74.5t74 191.5v141q-113 -88 -263 -88 q-92 0 -179.5 34.5t-158.5 96.5t-114 158.5t-43 210.5zM369 461q0 -119 75 -203t181 -84t181 84t75 203t-75 203t-181 84t-181 -84t-75 -203z" glyph-name="g" horiz-adv-x="1269" unicode="g"/>
<glyph d="M143 0v1536h246v-662q82 89 232 89q103 0 194 -46t150 -135t59 -200v-582h-246v571q0 74 -51.5 122t-132.5 48q-85 0 -145 -57.5t-60 -134.5v-549h-246z" glyph-name="h" horiz-adv-x="1167" unicode="h"/>
<glyph d="M143 0v922h246v-922h-246zM143 1270v266h246v-266h-246z" glyph-name="i" horiz-adv-x="532" unicode="i"/>
<glyph d="M-51 -338q65 -18 100 -18q90 0 90 80v1198h246v-1213q0 -122 -86.5 -202t-216.5 -80q-65 0 -133 18v217zM139 1270v266h246v-266h-246z" glyph-name="j" horiz-adv-x="528" unicode="j"/>
<glyph d="M143 0v1536h246v-950l281 336h311l-387 -461l387 -461h-311l-281 336v-336h-246z" glyph-name="k" horiz-adv-x="1032" unicode="k"/>
<glyph d="M143 0v1536h246v-1536h-246z" glyph-name="l" horiz-adv-x="532" unicode="l"/>
<glyph d="M143 0v922h246v-48q83 89 203 89q126 0 221 -95q103 97 254 97q71 0 138 -23.5t120 -66t85 -108t32 -144.5v-623h-246v608q0 67 -40 103.5t-95 36.5q-58 0 -102 -38.5t-44 -103.5v-606h-245v616q0 64 -38.5 98t-92.5 34q-60 0 -105 -38.5t-45 -103.5v-606h-246z" glyph-name="m" horiz-adv-x="1585" unicode="m"/>
<glyph d="M143 0v922h246v-48q82 89 232 89q103 0 194 -46t150 -135t59 -200v-582h-246v571q0 74 -51.5 122t-132.5 48q-85 0 -145 -57.5t-60 -134.5v-549h-246z" glyph-name="n" horiz-adv-x="1167" unicode="n"/>
<glyph d="M102 461q0 136 67.5 251.5t183 183t251.5 67.5t251.5 -67.5t183 -183t67.5 -251.5t-67.5 -251.5t-183 -183t-251.5 -67.5t-251.5 67.5t-183 183t-67.5 251.5zM348 461q0 -119 75 -203t181 -84t181 84t75 203t-75 203t-181 84t-181 -84t-75 -203z" glyph-name="o" unicode="o"/>
<glyph d="M143 -553v1475h246v-50q115 89 262 89q92 0 180 -34.5t158.5 -96.5t114 -158.5t43.5 -210.5t-43.5 -210.5t-114 -158.5t-158.5 -96.5t-180 -34.5q-149 0 -262 88v-602h-246zM389 461q0 -119 75 -203t181 -84t181 84t75 203t-75 203t-181 84t-181 -84t-75 -203z" glyph-name="p" horiz-adv-x="1249" unicode="p"/>
<glyph d="M102 461q0 114 43.5 210.5t114 158.5t158.5 96.5t180 34.5q147 0 262 -89v50h246v-1475h-246v602q-113 -88 -262 -88q-92 0 -180 34.5t-158.5 96.5t-114 158.5t-43.5 210.5zM348 461q0 -119 75 -203t181 -84t181 84t75 203t-75 203t-181 84t-181 -84t-75 -203z" glyph-name="q" horiz-adv-x="1249" unicode="q"/>
<glyph d="M92 0v922h246v-48q80 89 223 89q46 0 121 -11v-219q-71 21 -129 21q-93 0 -154 -59.5t-61 -143.5v-551h-246z" glyph-name="r" horiz-adv-x="774" unicode="r"/>
<glyph d="M82 231l197 72q30 -69 91 -105t128 -36q63 0 107 29.5t44 80.5q0 50 -76 68l-180 39q-56 12 -99 30t-84.5 49.5t-64 83t-22.5 120.5q0 96 53 166t134.5 102.5t178.5 32.5q86 0 165 -26.5t143 -84t90 -137.5l-197 -86q-25 64 -81.5 98.5t-119.5 34.5q-56 0 -94.5 -27.5 t-38.5 -75.5q0 -55 76 -73l180 -39q46 -11 80.5 -22.5t73 -33.5t63.5 -50.5t41.5 -72.5t16.5 -100q0 -97 -56.5 -169.5t-143 -107t-187.5 -34.5q-142 0 -259.5 71t-158.5 203z" glyph-name="s" horiz-adv-x="968" unicode="s"/>
<glyph d="M61 707v215h164v614h246v-614h164v-215h-164v-707h-246v707h-164z" glyph-name="t" horiz-adv-x="696" unicode="t"/>
<glyph d="M143 350v572h246v-572q0 -74 51.5 -122t132.5 -48q85 0 145 57.5t60 135.5v549h246v-922h-246v47q-81 -88 -231 -88q-102 0 -194 48.5t-151 140t-59 202.5z" glyph-name="u" horiz-adv-x="1167" unicode="u"/>
<glyph d="M0 922h262l270 -639l269 639h262l-414 -922h-235z" glyph-name="v" horiz-adv-x="1062" unicode="v"/>
<glyph d="M0 922h254l192 -586l185 586h237l185 -586l192 586h254l-332 -922h-229l-188 594l-189 -594h-229z" glyph-name="w" horiz-adv-x="1499" unicode="w"/>
<glyph d="M0 0l383 461l-383 461h289l237 -293l238 293h289l-383 -461l383 -461h-289l-238 293l-237 -293h-289z" glyph-name="x" horiz-adv-x="1052" unicode="x"/>
<glyph d="M-4 -307q35 -22 82.5 -37.5t89.5 -15.5q84 0 115 67l133 307l-408 908h264l265 -627l268 627h264l-584 -1295q-43 -100 -119.5 -150t-175.5 -50q-101 0 -194 51v215z" glyph-name="y" horiz-adv-x="1060" unicode="y"/>
<glyph d="M123 0v215l489 492h-483v215h817v-215l-489 -492h499v-215h-833z" glyph-name="z" horiz-adv-x="1079" unicode="z"/>
<glyph d="M61 539v215h11q62 0 105.5 48t43.5 122v247q0 162 109.5 263.5t275.5 101.5h76v-215h-76q-64 0 -101.5 -38.5t-37.5 -111.5v-247q0 -88 -37 -160t-102 -119q65 -46 102 -117t37 -159v-250q0 -73 37.5 -111.5t101.5 -38.5h76v-215h-76q-166 0 -275.5 101.5t-109.5 263.5 v250q0 74 -43.5 122t-105.5 48h-11z" glyph-name="braceleft" horiz-adv-x="743" unicode="{"/>
<glyph d="M260 -246v1782h246v-1782h-246z" glyph-name="bar" horiz-adv-x="768" unicode="|"/>
<glyph d="M61 -31h76q63 0 101 38.5t38 111.5v250q0 88 37.5 159t102.5 117q-65 47 -102.5 119t-37.5 160v247q0 73 -38 111.5t-101 38.5h-76v215h76q166 0 275.5 -101.5t109.5 -263.5v-247q0 -74 43.5 -122t106.5 -48h10v-215h-10q-63 0 -106.5 -48t-43.5 -122v-250 q0 -162 -109.5 -263.5t-275.5 -101.5h-76v215z" glyph-name="braceright" horiz-adv-x="743" unicode="}"/>
<glyph glyph-name="uni00A0" horiz-adv-x="409" unicode=" "/>
<glyph d="M176 0v1010h246v-1010h-246zM176 1184v352h246v-352h-246z" glyph-name="exclamdown" horiz-adv-x="598" unicode="¡"/>
<glyph d="M92 461q0 175 107 310t272 177v258h246v-258q100 -26 181 -87.5t130 -149.5l-207 -119q-33 71 -93.5 113.5t-133.5 42.5q-106 0 -181 -84t-75 -203t75 -203t181 -84q72 0 133 43t94 113l207 -121q-52 -87 -132 -148.5t-179 -87.5v-260h-246v260q-165 42 -272 177.5 t-107 310.5z" glyph-name="cent" horiz-adv-x="1120" unicode="¢"/>
<glyph d="M143 0v215h265l-101 444h-164v215h115l-45 193q-12 61 -12 117q0 173 116 283t310 110q162 0 291.5 -96t171.5 -285l-216 -86q-29 108 -92 180t-164 72q-94 0 -137 -54t-43 -139q0 -44 13 -98l45 -197h467v-215h-418l102 -444h418v-215h-922z" glyph-name="sterling" horiz-adv-x="1230" unicode="£"/>
<glyph d="M51 1536h295l391 -514l393 514h295l-421 -553h299v-215h-443v-195h443v-215h-443v-358h-246v358h-438v215h438v195h-438v215h297z" glyph-name="yen" horiz-adv-x="1476" unicode="¥"/>
<glyph d="M102 768q0 164 64 314t172.5 258.5t258.5 172.5t314 64q250 0 453 -138.5t295 -361.5l-221 -92q-62 168 -205.5 272.5t-319.5 104.5q-153 0 -282.5 -79.5t-205 -216.5t-75.5 -298t75.5 -298t205 -216.5t282.5 -79.5q205 0 361.5 138t193.5 347h-557v215h801q8 -47 8 -106 q0 -164 -64 -314t-172.5 -258.5t-258.5 -172.5t-314 -64t-314 64t-258.5 172.5t-172.5 258.5t-64 314z" glyph-name="section" horiz-adv-x="1822" unicode="§"/>
<glyph d="M268 1280v256h217v-256h-217zM719 1280v256h217v-256h-217z" glyph-name="dieresis" horiz-adv-x="1206" unicode="¨"/>
<glyph d="M102 768q0 164 64 314t172.5 258.5t258.5 172.5t314 64t314 -64t258.5 -172.5t172.5 -258.5t64 -314t-64 -314t-172.5 -258.5t-258.5 -172.5t-314 -64t-314 64t-258.5 172.5t-172.5 258.5t-64 314zM350 768q0 -161 75.5 -298t205 -216.5t282.5 -79.5t283 79.5 t205.5 216.5t75.5 298t-75.5 298t-205.5 216.5t-283 79.5t-282.5 -79.5t-205 -216.5t-75.5 -298zM453 768q0 208 132.5 344.5t338.5 136.5q136 0 236 -67.5t161 -188.5l-191 -119q-28 72 -81 116t-125 44q-105 0 -165.5 -73t-60.5 -193t60.5 -193t165.5 -73q71 0 125.5 44.5 t80.5 115.5l191 -121q-57 -118 -159 -186t-238 -68q-206 0 -338.5 136.5t-132.5 344.5z" glyph-name="copyright" horiz-adv-x="1822" unicode="©"/>
<glyph d="M61 510l359 358l151 -151l-204 -205l204 -207l-151 -151zM614 510l359 358l151 -151l-204 -205l204 -207l-151 -151z" glyph-name="guillemotleft" horiz-adv-x="1185" unicode="«"/>
<glyph d="M82 455v215h645v-215h-645z" glyph-name="uni00AD" horiz-adv-x="808" unicode="­"/>
<glyph d="M248 1321v215h704v-215h-704z" glyph-name="macron" unicode="¯"/>
<glyph d="M528 1180q0 164 115.5 279.5t278.5 115.5q164 0 279.5 -115.5t115.5 -279.5q0 -163 -115.5 -279.5t-279.5 -116.5q-163 0 -278.5 116.5t-115.5 279.5zM723 1180q0 -84 58.5 -147.5t140.5 -63.5q83 0 141.5 63t58.5 148t-58.5 148t-141.5 63q-82 0 -140.5 -63.5 t-58.5 -147.5z" glyph-name="degree" horiz-adv-x="1847" unicode="°"/>
<glyph d="M291 1343l520 295l107 -168l-521 -294z" glyph-name="acute" unicode="´"/>
<glyph d="M342 -354l131 80q14 -25 37.5 -44.5t48.5 -19.5q26 0 41.5 17.5t15.5 39.5q0 20 -12 34t-29 14q-30 0 -47 -39l-135 104l207 266l133 -104l-74 -94q57 -27 86 -73.5t29 -100.5q0 -97 -66 -157.5t-155 -60.5q-65 0 -122 35t-89 103z" glyph-name="cedilla" horiz-adv-x="1120" unicode="¸"/>
<glyph d="M61 305l205 205l-205 207l152 151l358 -358l-358 -356zM614 305l205 205l-205 207l152 151l358 -358l-358 -356z" glyph-name="guillemotright" horiz-adv-x="1185" unicode="»"/>
<glyph d="M100 457q0 145 90 260t259 153q88 19 136 67.5t58 113.5h240q-14 -317 -377 -398q-80 -18 -123 -75t-43 -129q0 -96 71 -166t201 -70q111 0 205.5 66t132.5 192l199 -78q-20 -79 -60.5 -144.5t-92.5 -111t-115 -77t-130 -46t-137 -14.5q-123 0 -223 39.5t-162 105 t-95.5 146t-33.5 166.5zM643 1225v352h246v-352h-246z" glyph-name="questiondown" horiz-adv-x="1251" unicode="¿"/>
<glyph d="M0 0l608 1536h252l608 -1536h-266l-153 397h-631l-154 -397h-264zM401 1843l70 182l569 -194l-69 -182zM500 610h467l-234 602z" glyph-name="Agrave" horiz-adv-x="1468" unicode="À"/>
<glyph d="M0 0l608 1536h252l608 -1536h-266l-153 397h-631l-154 -397h-264zM401 1831l570 194l69 -182l-569 -194zM500 610h467l-234 602z" glyph-name="Aacute" horiz-adv-x="1468" unicode="Á"/>
<glyph d="M0 0l608 1536h252l608 -1536h-266l-153 397h-631l-154 -397h-264zM338 1823l369 184l366 -184l-92 -170l-274 135l-275 -135zM500 610h467l-234 602z" glyph-name="Acircumflex" horiz-adv-x="1468" unicode="Â"/>
<glyph d="M0 0l608 1536h252l608 -1536h-266l-153 397h-631l-154 -397h-264zM334 1737q0 112 68.5 182t168.5 70q49 0 87 -11.5t59.5 -27.5t39 -32.5t36.5 -28t41 -11.5q27 0 45 22t18 66h174q0 -110 -68.5 -180t-168.5 -70q-49 0 -87 11.5t-59.5 28t-39 32.5t-36.5 27.5t-41 11.5 q-27 0 -45 -22.5t-18 -67.5h-174zM500 610h467l-234 602z" glyph-name="Atilde" horiz-adv-x="1468" unicode="Ã"/>
<glyph d="M0 0l608 1536h252l608 -1536h-266l-153 397h-631l-154 -397h-264zM399 1677v256h217v-256h-217zM500 610h467l-234 602zM850 1677v256h217v-256h-217z" glyph-name="Adieresis" horiz-adv-x="1468" unicode="Ä"/>
<glyph d="M0 0l608 1536h252l608 -1536h-266l-153 397h-631l-154 -397h-264zM500 610h467l-234 602zM526 1700q0 88 60.5 148.5t146.5 60.5q88 0 148.5 -60.5t60.5 -148.5q0 -86 -60.5 -146.5t-148.5 -60.5q-86 0 -146.5 60.5t-60.5 146.5zM639 1700q0 -38 28 -66t66 -28 q40 0 68 28t28 66q0 40 -28 68t-68 28q-38 0 -66 -28t-28 -68z" glyph-name="Aring" horiz-adv-x="1468" unicode="Å"/>
<glyph d="M51 0l901 1536h1055v-215h-645v-447h586v-215h-586v-444h645v-215h-891v397h-559l-229 -397h-277zM680 610h436v756z" glyph-name="AE" horiz-adv-x="2058" unicode="Æ"/>
<glyph d="M92 768q0 164 64 314t172.5 258.5t258.5 172.5t314 64q250 0 453 -138.5t295 -361.5l-222 -92q-62 168 -205 272.5t-319 104.5q-153 0 -282.5 -79.5t-205 -216.5t-75.5 -298t75.5 -298t205 -216.5t282.5 -79.5q176 0 319 104.5t205 272.5l222 -92q-92 -223 -295 -361.5 t-453 -138.5q-164 0 -314 64t-258.5 172.5t-172.5 258.5t-64 314zM690 -354l131 80q14 -25 37.5 -44.5t48.5 -19.5q26 0 42 17.5t16 39.5q0 20 -12 34t-29 14q-30 0 -47 -39l-136 104l207 266l133 -104l-73 -94q57 -26 85.5 -73t28.5 -101q0 -97 -66 -157.5t-155 -60.5 q-65 0 -122 35t-89 103z" glyph-name="Ccedilla" horiz-adv-x="1740" unicode="Ç"/>
<glyph d="M143 0v1536h891v-215h-645v-447h586v-215h-586v-444h645v-215h-891zM258 1843l70 182l569 -194l-70 -182z" glyph-name="Egrave" horiz-adv-x="1157" unicode="È"/>
<glyph d="M143 0v1536h891v-215h-645v-447h586v-215h-586v-444h645v-215h-891zM258 1831l569 194l70 -182l-569 -194z" glyph-name="Eacute" horiz-adv-x="1157" unicode="É"/>
<glyph d="M143 0v1536h891v-215h-645v-447h586v-215h-586v-444h645v-215h-891zM215 1823l369 184l366 -184l-92 -170l-274 135l-275 -135z" glyph-name="Ecircumflex" horiz-adv-x="1157" unicode="Ê"/>
<glyph d="M143 0v1536h891v-215h-645v-447h586v-215h-586v-444h645v-215h-891zM233 1677v256h218v-256h-218zM684 1677v256h217v-256h-217z" glyph-name="Edieresis" horiz-adv-x="1157" unicode="Ë"/>
<glyph d="M-53 1843l69 182l570 -194l-70 -182zM143 0v1536h246v-1536h-246z" glyph-name="Igrave" horiz-adv-x="532" unicode="Ì"/>
<glyph d="M-53 1831l569 194l70 -182l-570 -194zM143 0v1536h246v-1536h-246z" glyph-name="Iacute" horiz-adv-x="532" unicode="Í"/>
<glyph d="M-100 1823l370 184l367 -184l-92 -170l-275 135l-276 -135zM147 0v1536h246v-1536h-246z" glyph-name="Icircumflex" horiz-adv-x="532" unicode="Î"/>
<glyph d="M-63 1677v256h217v-256h-217zM147 0v1536h246v-1536h-246zM387 1677v256h217v-256h-217z" glyph-name="Idieresis" horiz-adv-x="532" unicode="Ï"/>
<glyph d="M41 668v215h195v653h542q209 0 385.5 -103t279.5 -279.5t103 -385.5t-103 -385.5t-279.5 -279.5t-385.5 -103h-542v668h-195zM481 215h267q150 0 277 74t201 201.5t74 277.5t-74 277.5t-201 201.5t-277 74h-267v-438h195v-215h-195v-453z" glyph-name="Eth" horiz-adv-x="1669" unicode="Ð"/>
<glyph d="M143 0v1536h246l707 -1108v1108h245v-1536h-245l-707 1106v-1106h-246zM371 1737q0 112 68.5 182t168.5 70q60 0 104 -17.5t63.5 -38t44 -38t50.5 -17.5q28 0 46 21.5t18 66.5h174q0 -111 -68.5 -180.5t-169.5 -69.5q-60 0 -104 17.5t-63 38t-43 38t-50 17.5 q-28 0 -46.5 -22.5t-18.5 -67.5h-174z" glyph-name="Ntilde" horiz-adv-x="1484" unicode="Ñ"/>
<glyph d="M102 768q0 164 64 314t172.5 258.5t258.5 172.5t314 64t314 -64t258.5 -172.5t172.5 -258.5t64 -314t-64 -314t-172.5 -258.5t-258.5 -172.5t-314 -64t-314 64t-258.5 172.5t-172.5 258.5t-64 314zM350 768q0 -161 75.5 -298t205 -216.5t282.5 -79.5t283 79.5 t205.5 216.5t75.5 298t-75.5 298t-205.5 216.5t-283 79.5t-282.5 -79.5t-205 -216.5t-75.5 -298zM606 1843l70 182l569 -194l-69 -182z" glyph-name="Ograve" horiz-adv-x="1822" unicode="Ò"/>
<glyph d="M102 768q0 164 64 314t172.5 258.5t258.5 172.5t314 64t314 -64t258.5 -172.5t172.5 -258.5t64 -314t-64 -314t-172.5 -258.5t-258.5 -172.5t-314 -64t-314 64t-258.5 172.5t-172.5 258.5t-64 314zM350 768q0 -161 75.5 -298t205 -216.5t282.5 -79.5t283 79.5 t205.5 216.5t75.5 298t-75.5 298t-205.5 216.5t-283 79.5t-282.5 -79.5t-205 -216.5t-75.5 -298zM565 1831l570 194l69 -182l-569 -194z" glyph-name="Oacute" horiz-adv-x="1822" unicode="Ó"/>
<glyph d="M102 768q0 164 64 314t172.5 258.5t258.5 172.5t314 64t314 -64t258.5 -172.5t172.5 -258.5t64 -314t-64 -314t-172.5 -258.5t-258.5 -172.5t-314 -64t-314 64t-258.5 172.5t-172.5 258.5t-64 314zM350 768q0 -161 75.5 -298t205 -216.5t282.5 -79.5t283 79.5 t205.5 216.5t75.5 298t-75.5 298t-205.5 216.5t-283 79.5t-282.5 -79.5t-205 -216.5t-75.5 -298zM539 1823l368 184l367 -184l-92 -170l-275 135l-274 -135z" glyph-name="Ocircumflex" horiz-adv-x="1822" unicode="Ô"/>
<glyph d="M102 768q0 164 64 314t172.5 258.5t258.5 172.5t314 64t314 -64t258.5 -172.5t172.5 -258.5t64 -314t-64 -314t-172.5 -258.5t-258.5 -172.5t-314 -64t-314 64t-258.5 172.5t-172.5 258.5t-64 314zM350 768q0 -161 75.5 -298t205 -216.5t282.5 -79.5t283 79.5 t205.5 216.5t75.5 298t-75.5 298t-205.5 216.5t-283 79.5t-282.5 -79.5t-205 -216.5t-75.5 -298zM575 1737q0 112 69 182t169 70q60 0 104 -17.5t63.5 -38t44 -38t50.5 -17.5q28 0 46 21.5t18 66.5h174q0 -111 -68.5 -180.5t-169.5 -69.5q-60 0 -104 17.5t-63 38t-43 38 t-50 17.5q-28 0 -46.5 -22.5t-18.5 -67.5h-175z" glyph-name="Otilde" horiz-adv-x="1822" unicode="Õ"/>
<glyph d="M102 768q0 164 64 314t172.5 258.5t258.5 172.5t314 64t314 -64t258.5 -172.5t172.5 -258.5t64 -314t-64 -314t-172.5 -258.5t-258.5 -172.5t-314 -64t-314 64t-258.5 172.5t-172.5 258.5t-64 314zM350 768q0 -161 75.5 -298t205 -216.5t282.5 -79.5t283 79.5 t205.5 216.5t75.5 298t-75.5 298t-205.5 216.5t-283 79.5t-282.5 -79.5t-205 -216.5t-75.5 -298zM588 1677v256h217v-256h-217zM1038 1677v256h217v-256h-217z" glyph-name="Odieresis" horiz-adv-x="1822" unicode="Ö"/>
<glyph d="M160 1079l174 174l323 -323l312 311l151 -151l-311 -312l321 -321l-174 -174l-321 321l-311 -311l-152 151l311 312z" glyph-name="multiply" horiz-adv-x="1290" unicode="×"/>
<glyph d="M102 768q0 164 64 314t172.5 258.5t258.5 172.5t314 64q110 0 232 -33l67 148l203 -97l-67 -145q172 -109 273 -289.5t101 -392.5q0 -164 -64 -314t-172.5 -258.5t-258.5 -172.5t-314 -64q-121 0 -227 33l-66 -148l-202 97l65 143q-174 109 -276.5 290t-102.5 394z M350 768q0 -144 60 -268t165 -207l476 1050q-68 19 -138 19q-153 0 -282.5 -79.5t-205 -216.5t-75.5 -298zM776 193q68 -19 137 -19q153 0 283 79.5t205.5 216.5t75.5 298q0 143 -60.5 267t-165.5 208z" glyph-name="Oslash" horiz-adv-x="1822" unicode="Ø"/>
<glyph d="M143 563v973h246v-973q0 -162 114.5 -275.5t274.5 -113.5t274.5 113.5t114.5 275.5v973h246v-973q0 -123 -50.5 -235t-135.5 -192.5t-202.5 -128.5t-246.5 -48t-246.5 48t-202.5 128.5t-135.5 192.5t-50.5 235zM442 1843l70 182l569 -194l-69 -182z" glyph-name="Ugrave" horiz-adv-x="1556" unicode="Ù"/>
<glyph d="M143 563v973h246v-973q0 -162 114.5 -275.5t274.5 -113.5t274.5 113.5t114.5 275.5v973h246v-973q0 -123 -50.5 -235t-135.5 -192.5t-202.5 -128.5t-246.5 -48t-246.5 48t-202.5 128.5t-135.5 192.5t-50.5 235zM442 1831l570 194l69 -182l-569 -194z" glyph-name="Uacute" horiz-adv-x="1556" unicode="Ú"/>
<glyph d="M143 563v973h246v-973q0 -162 114.5 -275.5t274.5 -113.5t274.5 113.5t114.5 275.5v973h246v-973q0 -123 -50.5 -235t-135.5 -192.5t-202.5 -128.5t-246.5 -48t-246.5 48t-202.5 128.5t-135.5 192.5t-50.5 235zM416 1823l368 184l367 -184l-92 -170l-275 135l-274 -135z " glyph-name="Ucircumflex" horiz-adv-x="1556" unicode="Û"/>
<glyph d="M143 563v973h246v-973q0 -162 114.5 -275.5t274.5 -113.5t274.5 113.5t114.5 275.5v973h246v-973q0 -123 -50.5 -235t-135.5 -192.5t-202.5 -128.5t-246.5 -48t-246.5 48t-202.5 128.5t-135.5 192.5t-50.5 235zM465 1677v256h217v-256h-217zM915 1677v256h218v-256h-218z " glyph-name="Udieresis" horiz-adv-x="1556" unicode="Ü"/>
<glyph d="M0 1536h295l438 -575l441 575h294l-612 -801v-735h-246v737zM422 1831l569 194l70 -182l-569 -194z" glyph-name="Yacute" horiz-adv-x="1468" unicode="Ý"/>
<glyph d="M143 0v1536h246v-330h332q181 0 309.5 -128t128.5 -310t-128.5 -310t-309.5 -128h-332v-330h-246zM389 545h322q90 0 146 64t56 159t-56 159t-146 64h-322v-446z" glyph-name="Thorn" horiz-adv-x="1261" unicode="Þ"/>
<glyph d="M66 707v215h151v211q0 187 132.5 318.5t320.5 131.5q186 0 318 -131.5t132 -318.5q0 -137 -70.5 -247.5t-189.5 -164.5q-59 -27 -59 -80q0 -26 18 -48t51 -32l113 -35q35 -12 67.5 -29.5t71.5 -48t62.5 -79t23.5 -107.5q0 -142 -99 -224.5t-235 -82.5q-114 0 -206 63 t-129 183l198 71q46 -112 135 -112q41 0 70 25t29 65q0 61 -66 82l-92 28q-54 16 -94.5 36.5t-76 52.5t-54.5 79.5t-19 108.5q0 89 51.5 165.5t133.5 110.5q58 24 91.5 84.5t33.5 135.5q0 96 -61 163.5t-148 67.5q-86 0 -146.5 -67t-60.5 -164v-1133h-246v707h-151z" glyph-name="germandbls" horiz-adv-x="1275" unicode="ß"/>
<glyph d="M102 461q0 114 43.5 210.5t114 158.5t158.5 96.5t180 34.5q147 0 262 -89v50h246v-922h-246v49q-113 -88 -262 -88q-92 0 -180 34.5t-158.5 96.5t-114 158.5t-43.5 210.5zM291 1470l106 168l521 -295l-107 -167zM348 461q0 -119 75 -203t181 -84t181 84t75 203t-75 203 t-181 84t-181 -84t-75 -203z" glyph-name="agrave" horiz-adv-x="1249" unicode="à"/>
<glyph d="M102 461q0 114 43.5 210.5t114 158.5t158.5 96.5t180 34.5q147 0 262 -89v50h246v-922h-246v49q-113 -88 -262 -88q-92 0 -180 34.5t-158.5 96.5t-114 158.5t-43.5 210.5zM291 1343l520 295l107 -168l-521 -294zM348 461q0 -119 75 -203t181 -84t181 84t75 203t-75 203 t-181 84t-181 -84t-75 -203z" glyph-name="aacute" horiz-adv-x="1249" unicode="á"/>
<glyph d="M102 461q0 114 43.5 210.5t114 158.5t158.5 96.5t180 34.5q147 0 262 -89v50h246v-922h-246v49q-113 -88 -262 -88q-92 0 -180 34.5t-158.5 96.5t-114 158.5t-43.5 210.5zM233 1319l369 317l369 -317l-135 -145l-234 200l-233 -200zM348 461q0 -119 75 -203t181 -84 t181 84t75 203t-75 203t-181 84t-181 -84t-75 -203z" glyph-name="acircumflex" horiz-adv-x="1249" unicode="â"/>
<glyph d="M102 461q0 114 43.5 210.5t114 158.5t158.5 96.5t180 34.5q147 0 262 -89v50h246v-922h-246v49q-113 -88 -262 -88q-92 0 -180 34.5t-158.5 96.5t-114 158.5t-43.5 210.5zM233 1307q0 112 69 182t169 70q60 0 104 -17.5t63.5 -38t44 -38t50.5 -17.5q27 0 45.5 22t18.5 66 h174q0 -110 -69 -180t-169 -70q-60 0 -104 17.5t-63.5 38t-44 38t-50.5 17.5q-27 0 -45 -22.5t-18 -67.5h-175zM348 461q0 -119 75 -203t181 -84t181 84t75 203t-75 203t-181 84t-181 -84t-75 -203z" glyph-name="atilde" horiz-adv-x="1249" unicode="ã"/>
<glyph d="M102 461q0 114 43.5 210.5t114 158.5t158.5 96.5t180 34.5q147 0 262 -89v50h246v-922h-246v49q-113 -88 -262 -88q-92 0 -180 34.5t-158.5 96.5t-114 158.5t-43.5 210.5zM268 1280v256h217v-256h-217zM348 461q0 -119 75 -203t181 -84t181 84t75 203t-75 203t-181 84 t-181 -84t-75 -203zM719 1280v256h217v-256h-217z" glyph-name="adieresis" horiz-adv-x="1249" unicode="ä"/>
<glyph d="M102 461q0 114 43.5 210.5t114 158.5t158.5 96.5t180 34.5q147 0 262 -89v50h246v-922h-246v49q-113 -88 -262 -88q-92 0 -180 34.5t-158.5 96.5t-114 158.5t-43.5 210.5zM348 461q0 -119 75 -203t181 -84t181 84t75 203t-75 203t-181 84t-181 -84t-75 -203zM375 1386 q0 96 66 163t161 67t161 -67t66 -163q0 -94 -66 -160.5t-161 -66.5t-161 66.5t-66 160.5zM528 1386q0 -31 21.5 -52t52.5 -21t53.5 21.5t22.5 51.5q0 32 -22.5 54t-53.5 22t-52.5 -22t-21.5 -54z" glyph-name="aring" horiz-adv-x="1249" unicode="å"/>
<glyph d="M102 461q0 114 43.5 210.5t114 158.5t158.5 96.5t180 34.5q147 0 262 -89v50h246v-45q107 86 256 86q136 0 251.5 -67.5t183 -183t67.5 -251.5q0 -45 -11 -105h-729q28 -81 93 -131.5t145 -50.5q74 0 135 43t92 115l207 -123q-66 -114 -181.5 -182t-252.5 -68 q-149 0 -256 86v-45h-246v49q-113 -88 -262 -88q-92 0 -180 34.5t-158.5 96.5t-114 158.5t-43.5 210.5zM348 461q0 -119 75 -203t181 -84t181 84t75 203t-75 203t-181 84t-181 -84t-75 -203zM1126 571h471q-30 78 -93.5 127.5t-141.5 49.5t-142 -49t-94 -128z" glyph-name="ae" horiz-adv-x="1966" unicode="æ"/>
<glyph d="M92 461q0 136 67.5 251.5t183 183t251.5 67.5q138 0 253.5 -68t180.5 -184l-207 -119q-33 71 -93.5 113.5t-133.5 42.5q-106 0 -181 -84t-75 -203t75 -203t181 -84q72 0 133 43t94 113l207 -121q-66 -114 -181.5 -182t-252.5 -68q-136 0 -251.5 67.5t-183 183 t-67.5 251.5zM342 -354l131 80q14 -25 37.5 -44.5t48.5 -19.5q26 0 41.5 17.5t15.5 39.5q0 20 -12 34t-29 14q-30 0 -47 -39l-135 104l207 266l133 -104l-74 -94q57 -27 86 -73.5t29 -100.5q0 -97 -66 -157.5t-155 -60.5q-65 0 -122 35t-89 103z" glyph-name="ccedilla" horiz-adv-x="1120" unicode="ç"/>
<glyph d="M102 461q0 136 67.5 251.5t183 183t251.5 67.5t251.5 -67.5t183 -183t67.5 -251.5q0 -50 -10 -105h-729q28 -81 92.5 -131.5t144.5 -50.5q74 0 135 43t92 115l207 -123q-66 -114 -181.5 -182t-252.5 -68q-136 0 -251.5 67.5t-183 183t-67.5 251.5zM291 1470l106 168 l521 -295l-107 -167zM369 571h471q-30 78 -94 127.5t-142 49.5t-141.5 -49t-93.5 -128z" glyph-name="egrave" unicode="è"/>
<glyph d="M102 461q0 136 67.5 251.5t183 183t251.5 67.5t251.5 -67.5t183 -183t67.5 -251.5q0 -50 -10 -105h-729q28 -81 92.5 -131.5t144.5 -50.5q74 0 135 43t92 115l207 -123q-66 -114 -181.5 -182t-252.5 -68q-136 0 -251.5 67.5t-183 183t-67.5 251.5zM291 1343l520 295 l107 -168l-521 -294zM369 571h471q-30 78 -94 127.5t-142 49.5t-141.5 -49t-93.5 -128z" glyph-name="eacute" unicode="é"/>
<glyph d="M102 461q0 136 67.5 251.5t183 183t251.5 67.5t251.5 -67.5t183 -183t67.5 -251.5q0 -50 -10 -105h-729q28 -81 92.5 -131.5t144.5 -50.5q74 0 135 43t92 115l207 -123q-66 -114 -181.5 -182t-252.5 -68q-136 0 -251.5 67.5t-183 183t-67.5 251.5zM233 1319l369 317 l369 -317l-135 -145l-234 200l-233 -200zM369 571h471q-30 78 -94 127.5t-142 49.5t-141.5 -49t-93.5 -128z" glyph-name="ecircumflex" unicode="ê"/>
<glyph d="M102 461q0 136 67.5 251.5t183 183t251.5 67.5t251.5 -67.5t183 -183t67.5 -251.5q0 -50 -10 -105h-729q28 -81 92.5 -131.5t144.5 -50.5q74 0 135 43t92 115l207 -123q-66 -114 -181.5 -182t-252.5 -68q-136 0 -251.5 67.5t-183 183t-67.5 251.5zM268 1280v256h217v-256 h-217zM369 571h471q-30 78 -94 127.5t-142 49.5t-141.5 -49t-93.5 -128zM719 1280v256h217v-256h-217z" glyph-name="edieresis" unicode="ë"/>
<glyph d="M-47 1470l106 168l521 -295l-107 -167zM184 0v922h246v-922h-246z" glyph-name="igrave" horiz-adv-x="532" unicode="ì"/>
<glyph d="M-47 1343l520 295l107 -168l-521 -294zM143 0v922h246v-922h-246z" glyph-name="iacute" horiz-adv-x="532" unicode="í"/>
<glyph d="M-104 1319l368 317l369 -317l-135 -145l-234 200l-233 -200zM147 0v922h246v-922h-246z" glyph-name="icircumflex" horiz-adv-x="532" unicode="î"/>
<glyph d="M-70 1280v256h217v-256h-217zM139 0v922h246v-922h-246zM381 1280v256h217v-256h-217z" glyph-name="idieresis" horiz-adv-x="532" unicode="ï"/>
<glyph d="M102 453q0 204 145.5 349.5t350.5 145.5h20l-83 144l-287 -177v236l184 113l-160 272h277l86 -147l280 170v-236l-178 -109l303 -514q68 -121 68 -243q0 -129 -63.5 -242.5t-180.5 -184.5t-260 -71q-136 0 -251.5 66.5t-183 180t-67.5 247.5zM342 461q0 -119 75 -203 t181 -84t181 84t75 203t-75 203t-181 84t-181 -84t-75 -203z" glyph-name="eth" unicode="ð"/>
<glyph d="M143 0v922h246v-48q82 89 232 89q103 0 194 -46t150 -135t59 -200v-582h-246v571q0 74 -51.5 122t-132.5 48q-85 0 -145 -57.5t-60 -134.5v-549h-246zM213 1307q0 112 69 182t169 70q60 0 104 -17.5t63.5 -38t44 -38t50.5 -17.5q27 0 45 22t18 66h174q0 -110 -68.5 -180 t-168.5 -70q-60 0 -104 17.5t-63.5 38t-44 38t-50.5 17.5q-27 0 -45.5 -23t-18.5 -67h-174z" glyph-name="ntilde" horiz-adv-x="1167" unicode="ñ"/>
<glyph d="M102 461q0 136 67.5 251.5t183 183t251.5 67.5t251.5 -67.5t183 -183t67.5 -251.5t-67.5 -251.5t-183 -183t-251.5 -67.5t-251.5 67.5t-183 183t-67.5 251.5zM291 1470l106 168l521 -295l-107 -167zM348 461q0 -119 75 -203t181 -84t181 84t75 203t-75 203t-181 84 t-181 -84t-75 -203z" glyph-name="ograve" unicode="ò"/>
<glyph d="M102 461q0 136 67.5 251.5t183 183t251.5 67.5t251.5 -67.5t183 -183t67.5 -251.5t-67.5 -251.5t-183 -183t-251.5 -67.5t-251.5 67.5t-183 183t-67.5 251.5zM291 1343l520 295l107 -168l-521 -294zM348 461q0 -119 75 -203t181 -84t181 84t75 203t-75 203t-181 84 t-181 -84t-75 -203z" glyph-name="oacute" unicode="ó"/>
<glyph d="M102 461q0 136 67.5 251.5t183 183t251.5 67.5t251.5 -67.5t183 -183t67.5 -251.5t-67.5 -251.5t-183 -183t-251.5 -67.5t-251.5 67.5t-183 183t-67.5 251.5zM233 1319l369 317l369 -317l-135 -145l-234 200l-233 -200zM348 461q0 -119 75 -203t181 -84t181 84t75 203 t-75 203t-181 84t-181 -84t-75 -203z" glyph-name="ocircumflex" unicode="ô"/>
<glyph d="M102 461q0 136 67.5 251.5t183 183t251.5 67.5t251.5 -67.5t183 -183t67.5 -251.5t-67.5 -251.5t-183 -183t-251.5 -67.5t-251.5 67.5t-183 183t-67.5 251.5zM233 1307q0 112 69 182t169 70q60 0 104 -17.5t63.5 -38t44 -38t50.5 -17.5q27 0 45.5 22t18.5 66h174 q0 -110 -69 -180t-169 -70q-60 0 -104 17.5t-63.5 38t-44 38t-50.5 17.5q-27 0 -45 -22.5t-18 -67.5h-175zM348 461q0 -119 75 -203t181 -84t181 84t75 203t-75 203t-181 84t-181 -84t-75 -203z" glyph-name="otilde" unicode="õ"/>
<glyph d="M102 461q0 136 67.5 251.5t183 183t251.5 67.5t251.5 -67.5t183 -183t67.5 -251.5t-67.5 -251.5t-183 -183t-251.5 -67.5t-251.5 67.5t-183 183t-67.5 251.5zM268 1280v256h217v-256h-217zM348 461q0 -119 75 -203t181 -84t181 84t75 203t-75 203t-181 84t-181 -84 t-75 -203zM719 1280v256h217v-256h-217z" glyph-name="odieresis" unicode="ö"/>
<glyph d="M82 659v215h1126v-215h-1126zM522 205v266h246v-266h-246zM522 1065v266h246v-266h-246z" glyph-name="divide" horiz-adv-x="1290" unicode="÷"/>
<glyph d="M102 461q0 136 67.5 251.5t183 183t251.5 67.5q40 0 101 -11l57 125l203 -96l-56 -121q91 -70 144 -175t53 -224q0 -136 -67.5 -251.5t-183 -183t-251.5 -67.5q-45 0 -100 10l-58 -125l-202 97l55 120q-91 70 -144 175.5t-53 224.5zM348 461q0 -99 53 -174l209 461h-6 q-105 1 -180.5 -83.5t-75.5 -203.5zM596 174h8q105 -1 180.5 83.5t75.5 203.5q0 97 -53 176z" glyph-name="oslash" unicode="ø"/>
<glyph d="M143 350v572h246v-572q0 -74 51.5 -122t132.5 -48q85 0 145 57.5t60 135.5v549h246v-922h-246v47q-81 -88 -231 -88q-102 0 -194 48.5t-151 140t-59 202.5zM270 1470l107 168l520 -295l-106 -167z" glyph-name="ugrave" horiz-adv-x="1167" unicode="ù"/>
<glyph d="M143 350v572h246v-572q0 -74 51.5 -122t132.5 -48q85 0 145 57.5t60 135.5v549h246v-922h-246v47q-81 -88 -231 -88q-102 0 -194 48.5t-151 140t-59 202.5zM291 1343l520 295l107 -168l-521 -294z" glyph-name="uacute" horiz-adv-x="1167" unicode="ú"/>
<glyph d="M143 350v572h246v-572q0 -74 51.5 -122t132.5 -48q85 0 145 57.5t60 135.5v549h246v-922h-246v47q-81 -88 -231 -88q-102 0 -194 48.5t-151 140t-59 202.5zM219 1319l369 317l368 -317l-135 -145l-233 200l-234 -200z" glyph-name="ucircumflex" horiz-adv-x="1167" unicode="û"/>
<glyph d="M143 350v572h246v-572q0 -74 51.5 -122t132.5 -48q85 0 145 57.5t60 135.5v549h246v-922h-246v47q-81 -88 -231 -88q-102 0 -194 48.5t-151 140t-59 202.5zM268 1280v256h217v-256h-217zM719 1280v256h217v-256h-217z" glyph-name="udieresis" horiz-adv-x="1167" unicode="ü"/>
<glyph d="M-2 -307q35 -22 82.5 -37.5t89.5 -15.5q84 0 115 67l133 307l-408 908h264l265 -627l268 627h264l-584 -1295q-43 -100 -119 -150t-175 -50q-102 0 -195 51v215zM252 1343l520 295l107 -168l-521 -294z" glyph-name="yacute" horiz-adv-x="1060" unicode="ý"/>
<glyph d="M143 -553v2089h246v-664q115 89 262 89q92 0 180 -34.5t158.5 -96.5t114 -158.5t43.5 -210.5t-43.5 -210.5t-114 -158.5t-158.5 -96.5t-180 -34.5q-149 0 -262 88v-602h-246zM389 461q0 -119 75 -203t181 -84t181 84t75 203t-75 203t-181 84t-181 -84t-75 -203z" glyph-name="thorn" horiz-adv-x="1249" unicode="þ"/>
</font>
</defs>
</svg>
